<svg width="43" height="51" fill="none" xmlns="http://www.w3.org/2000/svg"><path fill-rule="evenodd" clip-rule="evenodd" d="M29.337 8.157c1.82-2.205 2.734-4.586 2.734-7.137 0-.338-.016-.679-.053-1.02-1.268.067-2.616.46-4.041 1.168-1.428.72-2.606 1.621-3.532 2.706-1.855 2.143-2.9 4.763-2.9 7.212 0 .338.022.66.058.966 2.881.24 5.538-1.275 7.734-3.895zm9.69 36.517a27.896 27.896 0 002.686-4.93 38.71 38.71 0 00.882-2.364 11.365 11.365 0 01-3.46-2.317c-2.274-2.15-3.431-4.858-3.465-8.112-.037-4.178 1.823-7.434 5.584-9.76-2.101-3.047-5.26-4.738-9.465-5.084-1.551-.135-3.446.206-5.69 1.03-2.373.89-3.773 1.335-4.186 1.335-.552 0-1.812-.381-3.775-1.133-1.968-.75-3.552-1.13-4.76-1.13a12.061 12.061 0 00-6.153 1.772c-1.897 1.149-3.413 2.714-4.552 4.698C1.223 21.15.5 24.097.5 27.515c0 2.984.537 6.066 1.607 9.248 1 2.947 2.276 5.532 3.829 7.76 1.447 2.087 2.654 3.56 3.62 4.42 1.513 1.436 3.028 2.119 4.549 2.053 1-.035 2.307-.384 3.93-1.055 1.621-.667 3.136-.998 4.55-.998 1.346 0 2.82.33 4.423.998 1.598.67 2.97 1.001 4.109 1.001 1.585-.038 3.066-.702 4.448-1.999.892-.79 2.048-2.213 3.461-4.269z" fill="#2C2C2C"/></svg>