<svg width="48" height="48" viewBox="0 0 48 48" fill="none" xmlns="http://www.w3.org/2000/svg">
<circle cx="24" cy="24" r="24" fill="#5641D4"/>
<path fill-rule="evenodd" clip-rule="evenodd" d="M26.8867 32.1353H29.6006L33.3226 28.4134C33.6979 28.0381 33.6979 27.4313 33.3226 27.0569L31.9661 25.7005C31.5907 25.3251 30.984 25.3251 30.6096 25.7005L26.8877 29.4224V32.1353H26.8867Z" stroke="white" stroke-width="2" stroke-linecap="round" stroke-linejoin="round"/>
<path d="M31.6742 22.5619V17.7725" stroke="white" stroke-width="2" stroke-linecap="round" stroke-linejoin="round"/>
<path d="M23.039 28.3224H17.2828C16.223 28.3224 15.3638 27.4632 15.3638 26.4024V17.7461" stroke="white" stroke-width="2" stroke-linecap="round" stroke-linejoin="round"/>
<path fill-rule="evenodd" clip-rule="evenodd" d="M29.7456 15.8154H17.2925C16.2269 15.8154 15.3629 16.6794 15.3629 17.746V17.746C15.3629 18.3863 15.6797 18.9844 16.2096 19.3434L21.3504 22.8292C22.6608 23.7172 24.3792 23.7172 25.6896 22.8292L30.8285 19.3444C31.3584 18.9853 31.6752 18.3863 31.6752 17.7469V17.746C31.6743 16.6794 30.8112 15.8154 29.7456 15.8154Z" stroke="white" stroke-width="2" stroke-linecap="round" stroke-linejoin="round"/>
</svg>
