<svg width="105" height="33" fill="none" xmlns="http://www.w3.org/2000/svg"><path opacity=".8" d="M87.268 11.776l4.32 4.761 4.16-4.761h8.881l-8.68 9.76 8.799 9.841h-9.24l-4.28-4.799-4.24 4.8h-8.922l8.722-9.8-8.722-9.802h9.202zm-9.204-.001v6.623h-9.878v6.078h9.878v6.901H60.926V.5h17.138v6.883h-9.878v4.392h9.878z" fill="#2C2C2C"/><path d="M53.698.5v12.636h-.08c-1.602-1.84-3.601-2.479-5.92-2.479-4.754 0-8.334 3.232-9.59 7.503-1.435-4.706-5.132-7.591-10.613-7.591-4.451 0-7.966 1.997-9.8 5.253v-4.046H8.494V7.382h10.04V.5H.294v30.877h8.201V18.398h8.175a12.304 12.304 0 00-.374 3.053c0 6.44 4.921 10.96 11.2 10.96 5.28 0 8.761-2.479 10.6-6.998h-7.028c-.95 1.36-1.672 1.761-3.572 1.761-2.204 0-4.104-1.922-4.104-4.201h14.312c.62 5.115 4.606 9.527 10.074 9.527 2.359 0 4.52-1.16 5.84-3.12h.08v2h7.228V.5h-7.227zM23.62 18.49c.456-1.962 1.977-3.243 3.876-3.243 2.091 0 3.535 1.242 3.915 3.243H23.62zm25.689 8.187c-2.665 0-4.322-2.484-4.322-5.077 0-2.77 1.44-5.436 4.322-5.436 2.987 0 4.177 2.665 4.177 5.436 0 2.628-1.26 5.076-4.177 5.076z" fill="#2C2C2C"/></svg>