<svg width="48" height="48" viewBox="0 0 48 48" fill="none" xmlns="http://www.w3.org/2000/svg">
<circle cx="24" cy="24" r="24" fill="#00BA99"/>
<path d="M21.9993 24.997L22.9527 25.9501C23.7031 26.7004 24.721 27.122 25.7823 27.122C26.8437 27.122 27.8616 26.7004 28.612 25.9501L31.6443 22.9186C33.4572 21.1059 33.4572 18.1672 31.6443 16.3545V16.3545C29.8311 14.542 26.8917 14.542 25.0786 16.3545L24.1912 17.2426" stroke="white" stroke-width="2" stroke-linecap="round" stroke-linejoin="round"/>
<path d="M26.0011 21.9971L25.0477 21.0439C24.2972 20.2936 23.2793 19.8721 22.218 19.8721C21.1566 19.8721 20.1388 20.2936 19.3883 21.0439L16.356 24.0754C14.5431 25.8881 14.5431 28.8269 16.356 30.6395V30.6395C18.1692 32.452 21.1086 32.452 22.9218 30.6395L23.8091 29.7514" stroke="white" stroke-width="2" stroke-linecap="round" stroke-linejoin="round"/>
</svg>
