<svg width="48" height="48" viewBox="0 0 48 48" fill="none" xmlns="http://www.w3.org/2000/svg">
<circle cx="24" cy="24" r="24" fill="#F35FBE"/>
<path d="M32.1504 23.0678V18.2783" stroke="white" stroke-width="2" stroke-linecap="round" stroke-linejoin="round"/>
<path d="M31.2001 30.7471L33.1201 28.8271L31.2001 26.9071" stroke="white" stroke-width="2" stroke-linecap="round" stroke-linejoin="round"/>
<path fill-rule="evenodd" clip-rule="evenodd" d="M30.2295 16.3477H17.7706C16.7041 16.3477 15.8401 17.2117 15.8401 18.2782V18.2782C15.8401 18.9185 16.1578 19.5166 16.6878 19.8757L21.8305 23.3614C23.1409 24.2494 24.8612 24.2494 26.1716 23.3614L31.3134 19.8766C31.8423 19.5176 32.1601 18.9185 32.1601 18.2792V18.2782C32.1601 17.2117 31.2961 16.3477 30.2295 16.3477V16.3477Z" stroke="white" stroke-width="2" stroke-linecap="round" stroke-linejoin="round"/>
<path d="M23.5201 28.8278H17.7601C16.6993 28.8278 15.8401 27.9686 15.8401 26.9078V18.2783" stroke="white" stroke-width="2" stroke-linecap="round" stroke-linejoin="round"/>
<path d="M29.2705 32.6406H28.3105C27.2497 32.6406 26.3905 31.7814 26.3905 30.7206V30.7206C26.3905 29.6598 27.2497 28.8006 28.3105 28.8006H28.7809H28.3105H33.1201" stroke="white" stroke-width="2" stroke-linecap="round" stroke-linejoin="round"/>
</svg>
