<svg width="159" height="33" fill="none" xmlns="http://www.w3.org/2000/svg"><g style="mix-blend-mode:luminosity"><path d="M58.004 2h5.916l10.15 18.281L84.222 2h5.782v30h-4.84V9.031l-8.874 15.87h-4.572l-8.874-15.87V32h-4.84V2zm51.593 12.708c-.991-1.032-2.312-1.582-3.962-1.582-1.585 0-2.906.55-3.963 1.65-1.056 1.1-1.717 2.545-2.047 4.402h11.623c-.132-1.926-.661-3.37-1.651-4.47zM106.097 33c-2.246 0-4.161-.481-5.812-1.513-1.65-1.031-2.971-2.407-3.896-4.263-.924-1.788-1.387-3.852-1.387-6.19 0-2.338.463-4.47 1.387-6.257.925-1.788 2.18-3.233 3.83-4.264C101.87 9.48 103.719 9 105.833 9c2.113 0 3.896.55 5.415 1.582 1.519 1.031 2.707 2.475 3.5 4.332.792 1.857 1.254 4.057 1.254 6.533v1.375H99.757c.264 1.857 1.057 3.37 2.179 4.47 1.189 1.1 2.642 1.65 4.425 1.65 1.453 0 2.641-.206 3.698-.687 1.057-.413 1.981-1.1 2.906-1.994l2.509 3.232C112.833 31.83 109.729 33 106.097 33zm16.41-19.271h-4.505V9.697h4.505V3h4.706v6.697h6.789v4.032h-6.789v10.25c0 1.709.268 2.939.873 3.622.606.752 1.547 1.094 2.958 1.094.605 0 1.143 0 1.547-.069a36.9 36.9 0 011.411-.205v4.032c-.605.205-1.21.274-1.815.41-.672.137-1.411.137-2.084.137-5.042 0-7.596-2.802-7.596-8.474V13.73zm30.909 3.911a6.306 6.306 0 00-2.326-3.086c-1.063-.754-2.326-1.097-3.722-1.165-1.994 0-3.589.685-4.719 2.057-1.196 1.371-1.795 3.223-1.795 5.554 0 2.331.599 4.251 1.728 5.623 1.13 1.371 2.659 2.057 4.587 2.057a6.76 6.76 0 003.855-1.166c1.129-.754 1.927-1.783 2.392-3.085V17.64zm4.586 14.88h-4.586v-3.223c-.797 1.166-1.861 2.126-3.057 2.743-1.263.617-2.659.96-4.254.96-1.927 0-3.722-.549-5.184-1.577-1.529-1.029-2.725-2.469-3.589-4.252-.864-1.782-1.33-3.84-1.33-6.171 0-2.331.466-4.389 1.33-6.24.864-1.783 2.127-3.223 3.655-4.251C142.516 9.48 144.311 9 146.371 9c1.529 0 2.858.274 4.054.891 1.197.618 2.194 1.509 2.991 2.606V9.55h4.586v22.97z" fill="#2C2C2C"/><path d="M48 18.97v3.646c0 .27 0 .473-.067.743-.068.675-.203 1.35-.339 1.957-.27 1.013-.609 1.958-1.083 2.836a7.37 7.37 0 01-1.557 1.958c-.339.337-.745.607-1.151.877-.812.473-1.692.81-2.64.946-.136 0-.203 0-.339.067H38.59c-.27-.067-.61-.067-.88-.135-.677-.135-1.286-.338-1.828-.675-.745-.405-1.354-.878-1.963-1.418a30.19 30.19 0 01-1.422-1.485c-.677-.81-1.286-1.688-1.896-2.498-.88-1.35-1.76-2.7-2.572-4.118-.948-1.62-1.896-3.24-2.844-4.793-.27-.473-.61-.946-.88-1.418 0 0 0-.068-.068-.068-.067-.067-.067-.067-.135 0 0 0 0 .068-.068.068-.067.135-.203.337-.27.472-.407.676-.813 1.418-1.22 2.093-.676 1.148-1.285 2.296-1.962 3.376a47.46 47.46 0 01-1.896 3.105 27.99 27.99 0 01-2.031 2.903c-.61.743-1.219 1.486-1.896 2.093a8.804 8.804 0 01-1.557 1.215c-.948.608-1.963 1.013-3.046 1.148-.068 0-.203 0-.271.068H7.583c-.406-.068-.88-.136-1.286-.27-1.625-.473-2.911-1.35-3.927-2.634a9.766 9.766 0 01-1.354-2.295 12.867 12.867 0 01-.812-3.173c-.068-.405-.136-.81-.136-1.282 0-.406-.068-.81-.068-1.148v-1.823c0-.405.068-.81.068-1.215l.203-1.62c.203-1.148.406-2.296.745-3.376.406-1.418.88-2.835 1.557-4.118a25.072 25.072 0 011.828-3.24 19.757 19.757 0 012.166-2.566c.61-.54 1.22-1.08 1.896-1.485a9.383 9.383 0 012.64-1.215c.745-.203 1.558-.405 2.37-.405h.745c.406 0 .812.067 1.15.135 1.287.202 2.505.607 3.589 1.282a16.607 16.607 0 012.776 2.093c.541.473 1.015 1.013 1.489 1.485a26 26 0 011.286 1.553c.136.135.136.135.203 0 .204-.27.474-.608.677-.878.474-.607.948-1.147 1.49-1.755l1.421-1.418a12.855 12.855 0 011.828-1.35A8.795 8.795 0 0132.294.27C32.836.135 33.309 0 33.85 0h1.286c.339 0 .677.068 1.084.135 1.083.203 2.098.675 3.114 1.215.88.54 1.692 1.215 2.437 1.89.203.203.474.473.677.743.474.54.88 1.08 1.286 1.688.813 1.215 1.49 2.43 2.031 3.78.339.743.61 1.486.813 2.296.27.81.474 1.688.677 2.498.135.675.27 1.282.338 1.958.068.472.136.877.136 1.35.067.337.067.675.067 1.012.204.27.204.338.204.405zm-4.535 1.756v-.27c0-.473 0-.945-.068-1.418 0-.405-.068-.81-.136-1.215-.067-.608-.135-1.283-.27-1.89-.271-1.553-.677-3.106-1.287-4.524-.406-1.012-.88-2.025-1.49-2.97-.473-.81-1.082-1.485-1.76-2.16-.473-.473-.947-.878-1.556-1.148a5.572 5.572 0 00-2.912-.81c-.27 0-.541.067-.812.067a6.22 6.22 0 00-1.557.608c-.542.337-1.016.675-1.422 1.08a24.218 24.218 0 00-1.76 1.958c-.474.607-.88 1.215-1.286 1.89-.136.203-.136.135 0 .338.88 1.35 1.76 2.7 2.572 4.05.813 1.35 1.557 2.633 2.37 3.983.406.675.812 1.35 1.286 2.026.677 1.012 1.286 2.025 2.031 3.038.474.675 1.016 1.35 1.557 2.025.271.337.61.608 1.016.878s.812.405 1.218.472c.407.068.745.068 1.151 0 .813-.067 1.49-.472 1.964-1.08.27-.405.474-.81.677-1.283.27-.81.406-1.62.406-2.43v-.338c.068-.202.068-.54.068-.877zm-38.252.27v.607c0 .473.068.945.136 1.418.068.54.203 1.08.474 1.62.203.473.474.946.88 1.35.27.27.61.473.948.608a7.1 7.1 0 001.15.27h.61a4.09 4.09 0 001.286-.405c.474-.27.813-.54 1.219-.877a5.382 5.382 0 001.015-1.148c.677-.81 1.219-1.62 1.828-2.43a91.945 91.945 0 002.167-3.309c.474-.742 1.015-1.552 1.49-2.295.54-.878 1.15-1.755 1.692-2.633.406-.675.88-1.35 1.286-1.958.135-.202.135-.202 0-.337a24.645 24.645 0 00-1.963-2.498 39.074 39.074 0 00-1.625-1.688c-.406-.337-.813-.675-1.287-.945a5.794 5.794 0 00-1.624-.608c-.406-.067-.813-.135-1.219-.135-.338 0-.677.068-1.015.135a7.844 7.844 0 00-1.693.81c-.474.338-.88.676-1.219 1.08-.338.338-.609.743-.947 1.148-.61.81-1.084 1.688-1.49 2.633a26.04 26.04 0 00-1.286 3.646 38.087 38.087 0 00-.542 2.7c-.067.405-.135.878-.135 1.283 0 .337-.068.675-.068 1.08-.068.203-.068.54-.068.878z" fill="url(#paint0_linear_1694_32902)"/></g><defs><linearGradient id="paint0_linear_1694_32902" x1="15.035" y1="26.066" x2="37.808" y2="5.969" gradientUnits="userSpaceOnUse"><stop stop-color="#0082FB"/><stop offset=".185" stop-color="#007CF5"/><stop offset=".44" stop-color="#006AE5"/><stop offset=".506" stop-color="#0064E0"/><stop offset=".703" stop-color="#006EE9"/><stop offset=".953" stop-color="#0082FB"/></linearGradient></defs></svg>