<svg width="117" height="132" fill="none" xmlns="http://www.w3.org/2000/svg"><g clip-path="url(#clip0_7433_31502)"><path d="M9.697 102.765l49.747 25.438 47.858-25.438V3.29H9.697v99.475z" fill="#fff"/><path d="M108.311 3.67L8.691 104.537l51.637 25.691 47.983-24.679V3.67z" fill="#F2F3F2"/><path d="M6.422 36.449v68.468l1.763.885 49.747 25.439 1.511.759 1.512-.759 47.984-25.439 1.763-.885V0H6.422v36.449zm3.274 66.569V3.291h97.731v99.727l-47.984 25.438-49.747-25.438z" fill="#DCDEDC"/><path d="M58.563 4.936c.504 0 1.008 0 1.511.126l-1.511 2.911c-2.267-.126-4.282 1.645-4.408 3.923-.126 2.278 1.637 4.303 3.904 4.43h.504c1.008 0 2.015-.38 2.77-1.013l1.638 2.785a7.609 7.609 0 01-4.408 1.392c-4.03.127-7.43-2.91-7.556-6.96-.127-4.05 2.896-7.468 6.926-7.594h.63zm5.164 6.201l1.889 3.164-1.89 3.037-1.763-3.037h-3.652l1.89-3.164h3.526zm-3.023-1.139c0-.506.126-1.012.378-1.392.252-.38.755-.76 1.133-1.013l.252-.126c.504-.253.63-.38.63-.633s-.378-.506-.63-.506c-.504 0-.881.253-1.133.76l-.63-.634c.126-.253.378-.506.63-.759.377-.253.755-.253 1.133-.253s.882.127 1.134.38c.252.253.503.632.503 1.012 0 .633-.377 1.14-1.133 1.392l-.378.253c-.378.254-.63.38-.756.76h2.267v.886l-3.4-.127zm-2.141 15.82l11.965-6.834V0H46.472v18.857l12.091 6.96zm54.533 44.801H4.03L0 79.48l4.03 8.859h109.066l3.904-8.86-3.904-8.859z" fill="#FF492C"/><path d="M23.54 64.924a.255.255 0 01-.189-.076.303.303 0 01-.076-.202v-15.39c0-.075.026-.143.076-.202a.256.256 0 01.189-.076h2.657c.076 0 .139.025.19.076a.28.28 0 01.087.202v12.795c0 .076.038.114.114.114h7.405a.3.3 0 01.202.076c.05.06.075.127.075.203v2.202a.303.303 0 01-.075.202.3.3 0 01-.202.076H23.54zm22.808-7.062c.092.574.122 1.22.088 1.937-.008.185-.105.278-.29.278h-7.002c-.092 0-.122.038-.088.114.042.304.122.607.24.911.394.844 1.196 1.266 2.405 1.266.965-.009 1.73-.401 2.292-1.177.059-.093.126-.14.201-.14.05 0 .105.03.164.09l1.625 1.62c.075.075.113.143.113.202 0 .033-.03.097-.088.19-.495.615-1.138 1.096-1.927 1.442-.78.338-1.642.507-2.582.507-1.301 0-2.401-.296-3.3-.886-.898-.591-1.544-1.418-1.939-2.481-.32-.76-.479-1.755-.479-2.987 0-.835.114-1.57.34-2.202.353-1.08.962-1.94 1.827-2.582.873-.632 1.905-.949 3.098-.949 1.511 0 2.724.439 3.64 1.316.915.878 1.469 2.055 1.662 3.531zm-5.277-2.075c-.957 0-1.587.447-1.89 1.341-.058.203-.108.447-.15.734 0 .076.038.114.113.114h3.917c.092 0 .122-.038.088-.114-.075-.438-.113-.65-.113-.633-.135-.455-.37-.81-.706-1.063-.344-.253-.764-.38-1.259-.38zm11.876-2.76c.983 0 1.86.174 2.633.52.772.337 1.372.806 1.8 1.405.429.59.643 1.248.643 1.974v7.72a.303.303 0 01-.076.202.256.256 0 01-.189.076h-2.657a.255.255 0 01-.189-.076.28.28 0 01-.088-.202v-.747c0-.042-.013-.072-.038-.088-.034-.017-.063-.005-.088.038-.638.835-1.658 1.253-3.06 1.253-1.184 0-2.137-.287-2.86-.861-.73-.574-1.095-1.426-1.095-2.557 0-1.164.411-2.07 1.234-2.72.815-.642 1.977-.962 3.489-.962h2.305c.075 0 .113-.038.113-.114v-.507c0-.497-.151-.89-.454-1.177-.302-.278-.755-.417-1.36-.417-.462 0-.848.084-1.158.253-.311.169-.513.405-.605.709-.042.168-.139.244-.29.227l-2.745-.367c-.185-.033-.269-.1-.252-.202.059-.641.31-1.22.756-1.734.445-.515 1.037-.915 1.775-1.202.73-.295 1.55-.443 2.456-.443zm-.453 9.682c.646 0 1.196-.173 1.65-.518.453-.346.68-.794.68-1.342v-.822c0-.077-.038-.114-.113-.114h-1.625c-.68 0-1.213.13-1.6.392-.386.253-.579.616-.579 1.088 0 .414.143.734.428.962.286.236.672.355 1.159.355zm15.012-13.453c0-.075.025-.143.076-.202a.256.256 0 01.189-.076h2.657c.076 0 .139.025.189.076.05.059.075.127.075.202v15.39a.303.303 0 01-.075.202.255.255 0 01-.189.076h-2.657a.256.256 0 01-.19-.076.303.303 0 01-.075-.202v-.747c0-.042-.017-.067-.05-.076a.087.087 0 00-.088.026c-.638.835-1.507 1.253-2.607 1.253-1.058 0-1.97-.296-2.733-.886-.764-.591-1.314-1.401-1.65-2.43-.252-.794-.378-1.713-.378-2.76 0-1.08.134-2.02.403-2.822.353-.978.903-1.75 1.65-2.316.747-.573 1.67-.86 2.77-.86 1.092 0 1.94.38 2.545 1.139.025.05.054.067.088.05.033-.016.05-.046.05-.088v-4.873zm-.478 12.112c.302-.557.453-1.325.453-2.303 0-1.013-.168-1.81-.504-2.392-.344-.59-.848-.886-1.511-.886-.714 0-1.251.295-1.612.886-.378.599-.567 1.404-.567 2.417 0 .911.16 1.67.479 2.278.378.658.936.987 1.675.987.68 0 1.209-.329 1.587-.987zm16.385-3.506c.092.574.121 1.22.088 1.937-.009.185-.105.278-.29.278H76.21c-.093 0-.122.038-.088.114.042.304.121.607.239.911.394.844 1.196 1.266 2.405 1.266.966-.009 1.73-.401 2.293-1.177.058-.093.125-.14.201-.14.05 0 .105.03.164.09l1.624 1.62c.076.075.114.143.114.202 0 .033-.03.097-.088.19-.496.615-1.138 1.096-1.927 1.442-.781.338-1.642.507-2.582.507-1.301 0-2.401-.296-3.3-.886-.898-.591-1.545-1.418-1.94-2.481-.318-.76-.478-1.755-.478-2.987 0-.835.113-1.57.34-2.202.353-1.08.961-1.94 1.826-2.582.873-.632 1.906-.949 3.099-.949 1.51 0 2.724.439 3.64 1.316.914.878 1.468 2.055 1.662 3.531zm-5.277-2.075c-.957 0-1.587.447-1.89 1.341-.058.203-.109.447-.15.734 0 .076.037.114.113.114h3.916c.093 0 .122-.038.089-.114-.076-.438-.114-.65-.114-.633-.134-.455-.37-.81-.705-1.063-.344-.253-.764-.38-1.26-.38zm13.148-2.734c.546 0 .974.106 1.285.317.126.067.172.18.138.341l-.478 2.607c-.009.178-.114.228-.315.152a2.502 2.502 0 00-.794-.114c-.117 0-.281.017-.49.05a2.212 2.212 0 00-1.386.596c-.378.362-.567.84-.567 1.43v6.214a.303.303 0 01-.076.202.3.3 0 01-.201.076h-2.645a.3.3 0 01-.201-.076.303.303 0 01-.076-.202V53.483c0-.075.025-.139.076-.19a.3.3 0 01.201-.075H88.4a.3.3 0 01.201.076c.05.05.076.114.076.19v.873c0 .042.013.071.038.088.033.017.059.009.075-.025.622-.911 1.453-1.367 2.494-1.367z" fill="#252530"/><path d="M33.537 75.656a.197.197 0 01.177-.1h1.158a.12.12 0 01.101.05.12.12 0 01.05.101v8.555a.12.12 0 01-.05.102.12.12 0 01-.1.05h-1.16a.156.156 0 01-.113-.05.137.137 0 01-.037-.102v-6.037c0-.025-.009-.042-.026-.05-.025-.009-.042 0-.05.025l-1.574 2.43a.197.197 0 01-.177.101h-.579a.197.197 0 01-.176-.1l-1.587-2.418c-.008-.025-.021-.034-.038-.025-.025.008-.038.025-.038.05v6.024a.12.12 0 01-.05.102.12.12 0 01-.1.05h-1.16a.12.12 0 01-.1-.05.12.12 0 01-.05-.102v-8.555a.12.12 0 01.05-.101.12.12 0 01.1-.05h1.16c.075 0 .134.033.175.1l2.053 3.126c.017.017.034.026.05.026.018 0 .03-.009.038-.026l2.053-3.126zm4.018 1.405a.868.868 0 01-.642-.253.876.876 0 01-.252-.645c0-.262.084-.477.252-.646a.868.868 0 01.642-.253c.26 0 .474.084.642.253a.876.876 0 01.252.646.876.876 0 01-.252.645.867.867 0 01-.642.253zm-.605 7.353a.12.12 0 01-.1-.05.12.12 0 01-.05-.102v-6.176a.12.12 0 01.05-.101.12.12 0 01.1-.05h1.16c.041 0 .079.016.112.05.026.025.038.06.038.101v6.176a.137.137 0 01-.038.102.156.156 0 01-.113.05H36.95zm6.978-8.707a.12.12 0 01.05-.101.12.12 0 01.1-.05h1.16c.041 0 .08.016.113.05a.137.137 0 01.038.101v8.555a.137.137 0 01-.038.102.156.156 0 01-.114.05H44.08a.12.12 0 01-.101-.05.12.12 0 01-.05-.102v-.38c0-.025-.009-.041-.026-.05-.016-.008-.033 0-.05.025-.37.44-.852.658-1.448.658s-1.1-.156-1.512-.468c-.411-.312-.71-.746-.894-1.303-.15-.473-.226-1-.226-1.582 0-.6.07-1.114.214-1.544.184-.557.482-.992.894-1.304.411-.312.928-.468 1.549-.468.58 0 1.054.21 1.423.633.017.017.034.025.05.025.017-.008.026-.025.026-.05v-2.747zm-.303 6.935c.194-.346.29-.835.29-1.468 0-.658-.105-1.16-.315-1.506-.227-.371-.546-.557-.957-.557-.428 0-.764.178-1.008.532-.251.371-.377.886-.377 1.544 0 .59.1 1.076.302 1.455.235.405.592.608 1.07.608.429 0 .76-.203.995-.608zm3.124-1.404a.136.136 0 01-.101-.038.158.158 0 01-.05-.114v-.962c0-.042.016-.08.05-.114a.136.136 0 01.1-.038h3.968c.042 0 .075.013.1.038.034.034.051.072.051.114v.962c0 .042-.017.08-.05.114a.136.136 0 01-.101.038h-3.967zm11.133-5.582a.197.197 0 01.176-.1h1.159c.042 0 .08.016.113.05a.137.137 0 01.038.101v8.555a.137.137 0 01-.038.102.157.157 0 01-.113.05h-1.159a.12.12 0 01-.1-.05.12.12 0 01-.05-.102v-6.037c0-.025-.01-.042-.026-.05-.025-.009-.042 0-.05.025l-1.575 2.43a.197.197 0 01-.176.101h-.58a.197.197 0 01-.176-.1l-1.587-2.418c-.008-.025-.02-.034-.037-.025-.026.008-.038.025-.038.05v6.024a.137.137 0 01-.038.102.156.156 0 01-.113.05h-1.159a.12.12 0 01-.1-.05.12.12 0 01-.051-.102v-8.555a.12.12 0 01.05-.101.12.12 0 01.101-.05h1.159c.075 0 .134.033.176.1l2.053 3.126c.017.017.034.026.05.026.017 0 .03-.009.038-.026l2.053-3.126zm5.642 2.19c.53 0 .995.093 1.398.278.403.186.714.439.932.76.218.329.328.7.328 1.113v4.265a.137.137 0 01-.038.102.156.156 0 01-.114.05h-1.158a.12.12 0 01-.101-.05.12.12 0 01-.05-.102v-.405c0-.025-.009-.042-.026-.05-.016 0-.033.008-.05.025-.411.456-1.007.683-1.788.683-.63 0-1.146-.16-1.55-.48-.41-.321-.617-.798-.617-1.43 0-.659.231-1.173.693-1.545.453-.362 1.096-.544 1.927-.544h1.348c.042 0 .063-.02.063-.063v-.304c0-.329-.097-.586-.29-.772-.193-.177-.483-.266-.87-.266-.318 0-.574.06-.767.178a.718.718 0 00-.378.468c-.025.101-.084.143-.176.126l-1.222-.151a.28.28 0 01-.1-.038c-.034-.026-.047-.055-.039-.089.068-.515.345-.937.832-1.266.478-.329 1.083-.493 1.813-.493zm-.302 5.505c.411 0 .764-.11 1.058-.329.294-.22.44-.498.44-.835v-.595c0-.042-.02-.063-.062-.063H63.6c-.445 0-.794.084-1.046.253a.81.81 0 00-.39.721c0 .27.1.477.302.62.193.152.445.228.756.228zm7.418-5.48c.269 0 .504.055.705.165.067.033.093.097.076.19l-.214 1.139c-.009.1-.068.13-.177.088a1.389 1.389 0 00-.44-.063c-.11 0-.194.004-.252.013-.353.016-.647.139-.882.366-.235.237-.353.54-.353.912v3.581a.137.137 0 01-.037.102.156.156 0 01-.114.05h-1.158a.12.12 0 01-.101-.05.12.12 0 01-.05-.102V78.1c0-.042.016-.08.05-.114a.136.136 0 01.1-.038h1.16c.041 0 .079.013.113.038a.186.186 0 01.037.114v.57c0 .033.009.05.026.05.008.009.02 0 .037-.025.353-.549.844-.823 1.474-.823zm1.889 6.543a.12.12 0 01-.1-.05.12.12 0 01-.051-.102v-8.555a.12.12 0 01.05-.101.12.12 0 01.101-.05h1.159a.12.12 0 01.1.05.12.12 0 01.05.101v4.569c0 .025.01.042.026.05.017.009.034 0 .05-.025l2.04-2.265a.264.264 0 01.19-.089h1.334c.085 0 .127.03.127.089a.217.217 0 01-.038.1l-1.6 1.925c-.025.025-.03.054-.012.088l1.889 4.088c.017.034.025.06.025.076 0 .067-.046.101-.139.101H76.51a.178.178 0 01-.177-.114l-1.372-3.214c-.009-.017-.025-.03-.05-.038-.017 0-.03.008-.038.025l-1.008 1.164a.205.205 0 00-.025.089v1.936a.12.12 0 01-.05.102.12.12 0 01-.101.05h-1.159zm11.398-3.961c.033.21.05.447.05.709l-.013.392c0 .101-.05.152-.15.152H79.87c-.042 0-.063.02-.063.063.026.278.063.468.114.57.201.607.693.915 1.473.924.571 0 1.025-.237 1.36-.71.034-.05.076-.075.126-.075a.12.12 0 01.089.038l.78.645c.076.06.089.127.038.203-.26.371-.608.658-1.045.86a3.317 3.317 0 01-1.436.304c-.655 0-1.213-.148-1.675-.443a2.558 2.558 0 01-.995-1.24c-.193-.456-.29-1.088-.29-1.898 0-.49.05-.886.152-1.19.168-.59.487-1.059.957-1.405.462-.337 1.02-.506 1.675-.506 1.654 0 2.586.869 2.796 2.607zM81.13 79.11c-.31 0-.571.08-.781.24a1.22 1.22 0 00-.428.646c-.05.144-.084.33-.101.557-.017.042 0 .063.05.063h2.557c.042 0 .063-.02.063-.063a2.396 2.396 0 00-.076-.48 1.24 1.24 0 00-.44-.71c-.227-.168-.508-.253-.844-.253zm7.468-.126a.137.137 0 01-.038.101.156.156 0 01-.113.05h-1.285c-.041 0-.063.022-.063.064v3.05c0 .32.072.553.215.696.134.144.352.215.654.215h.378c.042 0 .076.013.101.038.034.034.05.072.05.114v.95c0 .092-.05.147-.15.164l-.656.012c-.663 0-1.158-.113-1.486-.341-.327-.228-.495-.658-.504-1.291V79.2c0-.042-.02-.063-.062-.063h-.718a.12.12 0 01-.101-.05.12.12 0 01-.05-.102v-.886c0-.042.016-.08.05-.114a.136.136 0 01.1-.038h.719c.041 0 .063-.021.063-.063v-1.48c0-.043.016-.081.05-.115a.136.136 0 01.1-.038h1.096c.042 0 .076.013.101.038.034.034.05.072.05.114v1.48c0 .043.022.064.063.064h1.285c.042 0 .08.013.113.038a.186.186 0 01.038.114v.886z" fill="#fff"/><path d="M38.74 102.259c-.092 0-.15-.042-.176-.127l-2.23-8.568-.012-.05c0-.076.046-.114.139-.114h1.562c.083 0 .138.042.163.126l1.197 5.151c.008.034.02.05.037.05.017 0 .03-.016.038-.05l1.159-5.138c.025-.093.08-.14.164-.14h1.523c.093 0 .152.043.177.127l1.26 5.151c.008.026.02.042.037.05.017 0 .03-.016.038-.05l1.158-5.138c.026-.093.08-.14.164-.14h1.486c.118 0 .164.056.139.165l-2.066 8.568c-.025.085-.084.127-.176.127h-1.499c-.084 0-.138-.042-.163-.127l-1.285-5.48c-.008-.033-.02-.05-.038-.05-.017 0-.03.017-.038.05l-1.196 5.468c-.017.092-.071.139-.164.139H38.74zm9.244 0a.156.156 0 01-.113-.051.136.136 0 01-.038-.101v-8.555c0-.043.013-.076.038-.102a.157.157 0 01.113-.05h1.474a.12.12 0 01.1.05.12.12 0 01.051.102v8.555a.12.12 0 01-.05.101.12.12 0 01-.101.051h-1.474zm8.224-8.707c0-.043.013-.076.038-.102a.156.156 0 01.114-.05h1.473a.12.12 0 01.1.05.12.12 0 01.051.102v8.555a.12.12 0 01-.05.101.12.12 0 01-.1.051H56.41c-.084 0-.143-.034-.176-.101l-3.262-5.417c-.017-.025-.034-.034-.05-.025-.017 0-.026.017-.026.05l.025 5.341a.12.12 0 01-.05.101.12.12 0 01-.1.051h-1.474a.156.156 0 01-.114-.051.136.136 0 01-.037-.101v-8.555c0-.043.012-.076.037-.102a.157.157 0 01.114-.05h1.423c.084 0 .143.033.176.101l3.25 5.391c.016.026.033.034.05.026.017 0 .025-.017.025-.05l-.012-5.316zm9.396-.152a.12.12 0 01.1.05.12.12 0 01.05.102v1.24a.12.12 0 01-.05.101.12.12 0 01-.1.05h-2.255c-.042 0-.063.022-.063.064v7.1a.12.12 0 01-.05.101.119.119 0 01-.1.051h-1.474a.156.156 0 01-.114-.051.136.136 0 01-.037-.101v-7.1c0-.042-.021-.063-.063-.063h-2.192a.157.157 0 01-.113-.05.137.137 0 01-.038-.102v-1.24c0-.043.013-.076.038-.102a.157.157 0 01.113-.05h6.348zm7.405 1.38a.138.138 0 01-.038.1.156.156 0 01-.113.051h-4.13c-.043 0-.064.021-.064.063v1.962c0 .042.021.063.063.063h2.708c.042 0 .075.013.1.038.034.034.051.072.051.114V98.4c0 .042-.017.08-.05.114a.136.136 0 01-.101.038h-2.708c-.042 0-.063.02-.063.063v2.05c0 .042.021.063.063.063h4.131c.042 0 .08.013.113.038a.187.187 0 01.038.114v1.228a.137.137 0 01-.038.101.156.156 0 01-.113.051h-5.819a.156.156 0 01-.113-.051.137.137 0 01-.038-.101v-8.555c0-.043.013-.076.038-.102a.157.157 0 01.114-.05h5.818c.042 0 .08.017.113.05.025.026.038.06.038.102v1.227zm6.07 7.479a.178.178 0 01-.176-.114l-1.574-3.506c-.017-.033-.042-.05-.076-.05h-1.17c-.043 0-.064.02-.064.063v3.455a.12.12 0 01-.05.101.12.12 0 01-.101.051h-1.474a.156.156 0 01-.113-.051.137.137 0 01-.038-.101v-8.555c0-.043.013-.076.038-.102a.157.157 0 01.113-.05h3.602c.538 0 1.008.11 1.411.329.411.22.726.531.945.936.226.405.34.874.34 1.405 0 .574-.143 1.063-.429 1.468a2.27 2.27 0 01-1.196.874c-.042.016-.055.046-.038.088l1.713 3.582a.19.19 0 01.025.076c0 .067-.046.101-.138.101h-1.55zm-2.997-7.328c-.042 0-.063.021-.063.063v2.165c0 .042.021.063.063.063h1.65c.353 0 .638-.106.856-.317.227-.21.34-.485.34-.822 0-.338-.113-.616-.34-.835-.218-.211-.503-.317-.856-.317h-1.65zM47.43 112.548c-.017.017-.02.034-.012.051.008.017.025.025.05.025h3.413c.042 0 .08.013.114.038a.187.187 0 01.037.114v1.227a.139.139 0 01-.037.102.159.159 0 01-.114.05h-5.667a.159.159 0 01-.114-.05.139.139 0 01-.037-.102v-1.164c0-.076.025-.139.075-.19.412-.405.831-.843 1.26-1.316.428-.481.696-.78.806-.899.235-.278.474-.544.718-.797.764-.852 1.146-1.485 1.146-1.898a.957.957 0 00-.315-.734c-.21-.186-.483-.279-.819-.279-.336 0-.609.093-.819.279a.986.986 0 00-.314.759v.317c0 .042-.017.08-.05.113a.133.133 0 01-.101.038h-1.487a.133.133 0 01-.1-.038.155.155 0 01-.05-.113v-.595a2.21 2.21 0 01.428-1.215c.26-.346.604-.612 1.032-.798a3.71 3.71 0 011.461-.278c.596 0 1.117.11 1.562.329.436.228.776.532 1.02.911.235.38.353.802.353 1.266 0 .354-.089.717-.265 1.088-.176.371-.44.772-.793 1.203-.26.329-.542.653-.844.974-.302.321-.752.785-1.348 1.392l-.189.19zm7.695 1.747c-.923 0-1.654-.262-2.191-.785-.537-.515-.806-1.219-.806-2.114v-3.341c0-.877.269-1.573.806-2.088.537-.515 1.268-.772 2.191-.772.924 0 1.659.257 2.204.772.538.515.806 1.211.806 2.088v3.341c0 .895-.268 1.599-.806 2.114-.545.523-1.28.785-2.204.785zm0-1.532c.378 0 .68-.118.907-.354.219-.228.328-.536.328-.924v-3.48c0-.389-.11-.696-.328-.924-.226-.237-.529-.355-.907-.355-.369 0-.663.118-.881.355-.227.228-.34.535-.34.924v3.48c0 .388.113.696.34.924.218.236.512.354.881.354zm6.537-.215c-.017.017-.021.034-.013.051.009.017.025.025.05.025h3.414c.042 0 .08.013.113.038a.187.187 0 01.038.114v1.227a.139.139 0 01-.038.102.158.158 0 01-.113.05h-5.668a.12.12 0 01-.1-.05.122.122 0 01-.05-.102v-1.164a.26.26 0 01.075-.19c.411-.405.83-.843 1.259-1.316.428-.481.697-.78.806-.899.235-.278.474-.544.718-.797.764-.852 1.146-1.485 1.146-1.898a.957.957 0 00-.315-.734c-.21-.186-.483-.279-.819-.279-.335 0-.608.093-.818.279a.986.986 0 00-.315.759v.317c0 .042-.012.08-.038.113a.18.18 0 01-.113.038h-1.486a.133.133 0 01-.1-.038.155.155 0 01-.051-.113v-.595c.025-.456.168-.861.428-1.215.26-.346.609-.612 1.045-.798a3.618 3.618 0 011.449-.278c.596 0 1.116.11 1.561.329.437.228.777.532 1.02.911.235.38.353.802.353 1.266 0 .354-.088.717-.264 1.088-.177.371-.441.772-.794 1.203-.26.329-.541.653-.844.974-.302.321-.751.785-1.347 1.392l-.19.19zm9.95-2.62c.167.388.251.836.251 1.342 0 .455-.076.877-.227 1.265a2.51 2.51 0 01-1.007 1.266c-.479.304-1.041.456-1.688.456-.638 0-1.196-.161-1.675-.481a2.666 2.666 0 01-1.045-1.304 3.614 3.614 0 01-.202-1.063c0-.101.05-.152.151-.152h1.487c.1 0 .15.051.15.152.034.278.08.485.14.62a.967.967 0 00.377.506c.168.127.37.19.605.19.47 0 .793-.207.97-.62.117-.253.176-.548.176-.886 0-.396-.063-.721-.19-.974-.192-.397-.516-.595-.969-.595a.64.64 0 00-.29.076c-.1.059-.222.139-.365.24a.163.163 0 01-.1.038c-.051 0-.089-.025-.114-.076l-.743-1.05a.157.157 0 01-.025-.089.17.17 0 01.05-.126l2.003-1.759c.016-.017.025-.034.025-.051-.009-.017-.025-.025-.05-.025h-2.96a.119.119 0 01-.1-.051.12.12 0 01-.051-.101v-1.228a.12.12 0 01.05-.101.119.119 0 01.1-.051H71.6c.042 0 .08.017.113.051a.136.136 0 01.038.101v1.392c0 .068-.03.131-.088.19l-1.65 1.519c-.017.017-.021.034-.013.05 0 .017.017.026.05.026.731.143 1.251.578 1.562 1.303z" fill="#252530"/></g><defs><clipPath id="clip0_7433_31502"><path fill="#fff" d="M0 0h117v132H0z"/></clipPath></defs></svg>