<svg width="117" height="132" fill="none" xmlns="http://www.w3.org/2000/svg"><g clip-path="url(#clip0_7433_31501)"><path d="M9.697 102.765l49.747 25.438 47.858-25.438V3.29H9.697v99.475z" fill="#fff"/><path d="M108.311 3.67L8.691 104.537l51.637 25.691 47.983-24.679V3.67z" fill="#F2F3F2"/><path d="M6.422 36.449v68.468l1.763.885 49.747 25.439 1.511.759 1.512-.759 47.984-25.439 1.763-.885V0H6.422v36.449zm3.274 66.569V3.291h97.731v99.727l-47.984 25.438-49.747-25.438z" fill="#DCDEDC"/><path d="M58.563 4.936c.504 0 1.008 0 1.511.126l-1.511 2.911c-2.267-.126-4.282 1.645-4.408 3.923-.126 2.278 1.637 4.303 3.904 4.43h.504c1.008 0 2.015-.38 2.77-1.013l1.638 2.785a7.609 7.609 0 01-4.408 1.392c-4.03.127-7.43-2.91-7.556-6.96-.127-4.05 2.896-7.468 6.926-7.594h.63zm5.164 6.201l1.889 3.164-1.89 3.037-1.763-3.037h-3.652l1.89-3.164h3.526zm-3.023-1.139c0-.506.126-1.012.378-1.392.252-.38.755-.76 1.133-1.013l.252-.126c.504-.253.63-.38.63-.633s-.378-.506-.63-.506c-.504 0-.881.253-1.133.76l-.63-.634c.126-.253.378-.506.63-.759.377-.253.755-.253 1.133-.253s.882.127 1.134.38c.252.253.503.632.503 1.012 0 .633-.377 1.14-1.133 1.392l-.378.253c-.378.254-.63.38-.756.76h2.267v.886l-3.4-.127zm-2.141 15.82l11.965-6.834V0H46.472v18.857l12.091 6.96zm54.533 44.801H4.03L0 79.48l4.03 8.859h109.066l3.904-8.86-3.904-8.859z" fill="#FF492C"/><path d="M21.285 51.623c.83 0 1.561.169 2.19.506.63.338 1.118.823 1.462 1.456.344.624.516 1.341.516 2.151 0 .802-.176 1.506-.529 2.114a3.749 3.749 0 01-1.511 1.404c-.647.338-1.394.507-2.242.507H18.49c-.06 0-.089.033-.089.1v4.835a.205.205 0 01-.075.165.221.221 0 01-.164.063h-2.204a.221.221 0 01-.164-.063.223.223 0 01-.063-.165V51.851c0-.068.021-.123.063-.165a.22.22 0 01.164-.063h5.328zm-.404 5.999c.588 0 1.054-.169 1.398-.506.353-.338.53-.777.53-1.317 0-.565-.177-1.016-.53-1.354-.344-.346-.81-.519-1.398-.519H18.49c-.06 0-.089.034-.089.102v3.493c0 .067.03.1.089.1h2.392zm14.106 1.417a8.94 8.94 0 01.063 1.608c-.008.16-.088.24-.24.24h-5.83c-.076 0-.105.03-.089.089.042.253.114.506.215.759.327.709.994 1.063 2.002 1.063.806-.008 1.44-.337 1.902-.987.059-.076.117-.114.176-.114.034 0 .076.025.126.076l1.36 1.341c.067.068.1.127.1.178 0 .025-.024.075-.075.151-.42.524-.953.924-1.6 1.203a5.4 5.4 0 01-2.165.43c-1.075 0-1.99-.245-2.746-.734-.747-.498-1.285-1.19-1.612-2.075-.269-.633-.403-1.46-.403-2.481 0-.7.097-1.316.29-1.848.294-.894.802-1.607 1.524-2.139.722-.531 1.578-.797 2.569-.797 1.26 0 2.271.367 3.035 1.101.764.734 1.23 1.713 1.398 2.936zm-4.408-1.72c-.798 0-1.322.37-1.574 1.113-.05.168-.093.371-.126.607 0 .06.033.089.1.089h3.262c.076 0 .101-.03.076-.089-.067-.363-.1-.54-.1-.531a1.618 1.618 0 00-.593-.886c-.277-.203-.625-.304-1.045-.304zm10.957-2.279c.453 0 .814.089 1.083.266.092.05.126.143.1.278l-.39 2.164c-.008.152-.096.199-.264.14a1.977 1.977 0 00-.655-.102c-.1 0-.243.013-.428.038-.445.043-.827.211-1.146.507-.31.295-.466.691-.466 1.19v5.175a.204.204 0 01-.076.165.206.206 0 01-.15.063h-2.218a.25.25 0 01-.163-.063.223.223 0 01-.063-.165v-9.302c0-.059.02-.113.063-.164a.25.25 0 01.163-.063h2.217c.059 0 .11.02.151.063a.23.23 0 01.076.164v.722c0 .034.012.059.038.076.016.017.033.008.05-.026.52-.75 1.213-1.126 2.078-1.126zm8.048.114c.067 0 .121.021.163.063a.223.223 0 01.063.165v1.797c0 .067-.02.122-.063.164a.221.221 0 01-.163.064h-1.827c-.067 0-.1.03-.1.088v7.201a.223.223 0 01-.063.165.221.221 0 01-.164.063h-2.204a.221.221 0 01-.164-.063.223.223 0 01-.063-.165v-7.2c0-.06-.033-.09-.1-.09H43.79a.22.22 0 01-.163-.063.223.223 0 01-.063-.164v-1.797c0-.068.02-.123.063-.165a.22.22 0 01.163-.063H44.9c.067 0 .1-.034.1-.101v-.418c0-.785.118-1.396.353-1.835.244-.43.63-.738 1.159-.924.537-.185 1.28-.266 2.229-.24h.718c.059 0 .109.02.15.063a.23.23 0 01.076.164v1.532a.204.204 0 01-.075.164.19.19 0 01-.151.076h-.63c-.437.009-.743.097-.92.266-.167.177-.251.494-.251.95v.202c0 .067.033.1.1.1h1.827zm5.478 9.922c-1.058 0-1.965-.278-2.72-.835-.756-.557-1.272-1.316-1.55-2.278a6.746 6.746 0 01-.264-1.937c0-.742.088-1.413.265-2.012.294-.936.818-1.67 1.574-2.202.756-.531 1.662-.797 2.72-.797 1.025 0 1.906.261 2.645.784.722.532 1.234 1.266 1.537 2.203a6.27 6.27 0 01.314 1.986c0 .684-.088 1.325-.264 1.924-.277.987-.794 1.76-1.55 2.316-.746.565-1.649.848-2.707.848zm0-2.29c.412 0 .764-.127 1.058-.38.294-.253.504-.604.63-1.05.092-.406.138-.849.138-1.33 0-.531-.046-.978-.138-1.341-.143-.43-.357-.768-.643-1.013-.293-.236-.65-.354-1.07-.354-.42 0-.773.118-1.058.354-.285.245-.491.583-.617 1.013-.1.295-.151.742-.151 1.341 0 .574.046 1.017.138 1.33.126.446.336.797.63 1.05s.655.38 1.083.38zm11.07-7.746c.454 0 .815.089 1.084.266.1.05.134.143.1.278l-.39 2.164c-.009.152-.097.199-.265.14a1.977 1.977 0 00-.654-.102c-.101 0-.24.013-.416.038-.453.043-.84.211-1.159.507-.31.295-.466.691-.466 1.19v5.175a.204.204 0 01-.075.165.22.22 0 01-.164.063h-2.204a.25.25 0 01-.164-.063.223.223 0 01-.063-.165v-9.302c0-.059.021-.113.063-.164a.25.25 0 01.164-.063h2.204a.22.22 0 01.164.063.23.23 0 01.075.164v.722c0 .034.009.059.025.076.034.017.055.008.063-.026.52-.75 1.214-1.126 2.078-1.126zm13.161-.025c.983 0 1.75.295 2.305.886.554.599.831 1.438.831 2.518v6.277a.223.223 0 01-.063.165.206.206 0 01-.15.063h-2.217a.25.25 0 01-.164-.063.223.223 0 01-.063-.165v-5.695c0-.514-.13-.924-.39-1.227-.27-.304-.626-.456-1.071-.456-.437 0-.793.152-1.07.456-.278.303-.416.708-.416 1.215v5.707a.223.223 0 01-.063.165.25.25 0 01-.164.063h-2.191a.22.22 0 01-.164-.063.223.223 0 01-.063-.165v-5.695c0-.506-.138-.915-.416-1.227-.277-.304-.638-.456-1.083-.456a1.5 1.5 0 00-1.007.354c-.269.245-.428.583-.479 1.013v6.011a.223.223 0 01-.063.165.25.25 0 01-.163.063h-2.204a.22.22 0 01-.164-.063.223.223 0 01-.063-.165v-9.302c0-.059.02-.113.063-.164a.22.22 0 01.164-.063h2.204a.25.25 0 01.163.063c.042.05.063.105.063.164v.747c0 .034.013.06.038.076.025.008.05-.008.076-.05.52-.768 1.322-1.152 2.405-1.152.63 0 1.18.135 1.65.405.47.261.831.64 1.083 1.139.034.076.08.076.139 0 .268-.523.642-.911 1.12-1.165.47-.253 1-.38 1.587-.38zm13.552 4.024c.075.481.1 1.017.075 1.608-.017.16-.1.24-.252.24h-5.83c-.076 0-.101.03-.076.089.033.253.1.506.201.759.328.709.995 1.063 2.003 1.063.806-.008 1.444-.337 1.914-.987.05-.076.105-.114.164-.114.042 0 .088.025.138.076l1.36 1.341c.06.068.089.127.089.178 0 .025-.026.075-.076.151a3.967 3.967 0 01-1.6 1.203 5.31 5.31 0 01-2.153.43c-1.083 0-1.998-.245-2.746-.734-.755-.498-1.297-1.19-1.624-2.075-.26-.633-.39-1.46-.39-2.481 0-.7.092-1.316.276-1.848.294-.894.802-1.607 1.524-2.139.722-.531 1.583-.797 2.582-.797 1.26 0 2.271.367 3.035 1.101.764.734 1.226 1.713 1.386 2.936zm-4.408-1.72c-.79 0-1.31.37-1.562 1.113-.05.168-.097.371-.138.607 0 .06.033.089.1.089H90.1c.076 0 .1-.03.076-.089a25.57 25.57 0 00-.088-.531c-.118-.38-.315-.675-.592-.886-.286-.203-.639-.304-1.058-.304zm10.957-2.279c.453 0 .814.089 1.083.266.101.05.138.143.113.278l-.39 2.164c-.017.152-.109.199-.277.14a1.909 1.909 0 00-.655-.102c-.101 0-.24.013-.416.038-.453.043-.84.211-1.159.507-.31.295-.465.691-.465 1.19v5.175a.223.223 0 01-.063.165.25.25 0 01-.164.063h-2.217a.205.205 0 01-.15-.063.204.204 0 01-.076-.165v-9.302a.23.23 0 01.075-.164.205.205 0 01.151-.063h2.217a.25.25 0 01.163.063c.043.05.064.105.064.164v.722c0 .034.012.059.037.076.025.017.046.008.063-.026.512-.75 1.2-1.126 2.066-1.126zM47.43 32.88c0-.06.021-.114.063-.165a.206.206 0 01.151-.063h2.217a.25.25 0 01.163.063c.042.05.063.106.063.165v12.833a.223.223 0 01-.063.164.25.25 0 01-.163.063h-2.217a.206.206 0 01-.151-.063.223.223 0 01-.063-.164v-5.24c0-.059-.033-.088-.1-.088h-4.182c-.059 0-.088.03-.088.088v5.24a.223.223 0 01-.063.164.25.25 0 01-.164.063h-2.216a.205.205 0 01-.151-.063.204.204 0 01-.076-.164V32.88a.23.23 0 01.075-.165.205.205 0 01.152-.063h2.216a.25.25 0 01.164.063c.042.05.063.106.063.165v5.1c0 .068.03.101.088.101h4.181c.068 0 .101-.034.101-.101v-5.1zm6.096 2.202c-.429 0-.785-.144-1.07-.43-.286-.279-.43-.633-.43-1.064 0-.447.14-.81.416-1.088.278-.278.639-.418 1.084-.418.445 0 .806.14 1.083.418.277.279.415.641.415 1.088 0 .43-.142.785-.428 1.063-.285.287-.642.43-1.07.43zM52.392 45.94a.25.25 0 01-.164-.063.223.223 0 01-.063-.164v-9.315c0-.068.021-.122.063-.165a.25.25 0 01.164-.063h2.217c.058 0 .109.021.15.063.051.043.076.098.076.165v9.315a.205.205 0 01-.075.164.206.206 0 01-.151.063h-2.217zm10.44-9.53a.23.23 0 01.076-.164.206.206 0 01.151-.063h2.217a.25.25 0 01.164.063c.042.05.063.106.063.165v8.656c0 1.654-.475 2.835-1.423 3.544-.95.717-2.175 1.076-3.678 1.076-.445 0-.936-.034-1.474-.102-.125-.017-.188-.097-.188-.24l.075-1.962c0-.169.088-.24.265-.215a7.6 7.6 0 001.247.114c.806 0 1.427-.173 1.863-.519.429-.363.643-.932.643-1.708 0-.043-.013-.068-.038-.076-.025-.009-.05.004-.076.038-.478.514-1.175.772-2.09.772a4.393 4.393 0 01-2.255-.595c-.688-.397-1.18-1.038-1.473-1.924-.185-.582-.277-1.337-.277-2.265 0-.987.113-1.789.34-2.405a3.715 3.715 0 011.335-1.86c.63-.473 1.364-.709 2.204-.709.965 0 1.704.291 2.216.873.026.026.05.034.076.026.025-.009.038-.03.038-.064v-.455zm-.15 6.126c.1-.371.15-.89.15-1.557 0-.388-.012-.687-.037-.898a3.513 3.513 0 00-.126-.62 1.792 1.792 0 00-.567-.823c-.26-.202-.587-.304-.982-.304-.378 0-.697.102-.957.304a1.84 1.84 0 00-.592.823c-.176.38-.265.894-.265 1.544 0 .709.076 1.215.227 1.518.11.346.306.62.592.823.285.211.621.317 1.008.317.402 0 .738-.106 1.007-.317.26-.202.44-.472.542-.81zm9.798-6.505c1.007 0 1.818.312 2.43.937.614.615.92 1.455.92 2.518v6.227a.223.223 0 01-.063.164.206.206 0 01-.151.063h-2.217a.25.25 0 01-.163-.063.223.223 0 01-.063-.164V40.03c0-.498-.143-.907-.429-1.227-.277-.313-.65-.469-1.12-.469-.462 0-.836.156-1.121.469-.286.32-.429.73-.429 1.227v5.683a.223.223 0 01-.063.164.22.22 0 01-.163.063h-2.204a.22.22 0 01-.164-.063.223.223 0 01-.063-.164V32.88c0-.06.021-.114.063-.165a.22.22 0 01.164-.063h2.204a.22.22 0 01.163.063c.042.05.063.106.063.165v4.201c0 .034.013.06.038.076.025.009.042 0 .05-.025.521-.734 1.294-1.101 2.318-1.101z" fill="#252530"/><path d="M35.692 76.669a.137.137 0 01-.038.101.156.156 0 01-.113.05h-4.294c-.042 0-.063.022-.063.064v2.367c0 .042.02.063.063.063h2.884c.042 0 .08.013.113.038a.185.185 0 01.038.114v.962c0 .042-.013.08-.038.114a.184.184 0 01-.113.037h-2.884c-.042 0-.063.022-.063.064v2.442c0 .043.02.064.063.064h4.294c.042 0 .08.016.114.05.025.026.037.06.037.102v.961a.137.137 0 01-.038.102.156.156 0 01-.113.05h-5.667a.12.12 0 01-.101-.05.12.12 0 01-.05-.102v-8.555a.12.12 0 01.05-.101.12.12 0 01.1-.05h5.668c.042 0 .08.016.114.05a.137.137 0 01.037.101v.962zm4.434 1.177c.68 0 1.225.202 1.637.607.403.405.604.958.604 1.658v4.151a.12.12 0 01-.05.102.12.12 0 01-.1.05h-1.16a.156.156 0 01-.113-.05.137.137 0 01-.038-.102v-3.847c0-.388-.109-.705-.327-.95-.218-.236-.508-.354-.87-.354-.36 0-.654.118-.88.355-.219.236-.328.548-.328.936v3.86a.137.137 0 01-.038.102.156.156 0 01-.113.05H37.19a.12.12 0 01-.1-.05.12.12 0 01-.051-.102V78.1c0-.042.017-.08.05-.114a.136.136 0 01.101-.038h1.159c.042 0 .08.013.113.038a.186.186 0 01.038.114v.405c0 .025.008.042.025.05.017.009.03 0 .038-.025.344-.455.865-.683 1.562-.683zm7.178 1.139a.12.12 0 01-.05.101.12.12 0 01-.101.05h-1.285c-.042 0-.063.022-.063.064v3.05c0 .32.068.553.202.696.143.144.365.215.667.215h.378c.042 0 .076.013.101.038.034.034.05.072.05.114v.95c0 .092-.05.147-.15.164l-.656.012c-.663 0-1.158-.113-1.486-.341-.327-.228-.495-.658-.504-1.291V79.2c0-.042-.02-.063-.063-.063h-.717a.156.156 0 01-.114-.05.137.137 0 01-.038-.102v-.886c0-.042.013-.08.038-.114a.184.184 0 01.114-.038h.717c.042 0 .063-.021.063-.063v-1.48c0-.043.013-.081.038-.115a.183.183 0 01.114-.038h1.095c.042 0 .076.013.101.038.034.034.05.072.05.114v1.48c0 .043.021.064.063.064h1.285c.042 0 .076.013.1.038.034.034.051.072.051.114v.886zm6.6 1.468c.033.21.05.447.05.709l-.013.392c0 .101-.05.152-.15.152h-3.943c-.042 0-.063.02-.063.063.025.278.063.468.114.57.201.607.692.915 1.473.924.571 0 1.024-.237 1.36-.71.034-.05.076-.075.126-.075a.12.12 0 01.088.038l.781.645c.076.06.088.127.038.203-.26.371-.605.658-1.033.86a3.4 3.4 0 01-1.448.304c-.655 0-1.213-.148-1.675-.443a2.558 2.558 0 01-.995-1.24c-.193-.456-.29-1.088-.29-1.898 0-.49.05-.886.151-1.19.168-.59.487-1.059.958-1.405.461-.337 1.02-.506 1.675-.506 1.654 0 2.586.869 2.796 2.607zm-2.796-1.342c-.311 0-.571.08-.781.24a1.22 1.22 0 00-.428.646 2.21 2.21 0 00-.101.557c-.017.042 0 .063.05.063h2.557c.042 0 .063-.02.063-.063a2.396 2.396 0 00-.076-.48 1.241 1.241 0 00-.44-.71c-.227-.168-.509-.253-.844-.253zm7.178-1.24c.269 0 .504.055.706.165.067.033.092.097.075.19l-.214 1.139c-.008.1-.067.13-.176.088a1.389 1.389 0 00-.441-.063 1.9 1.9 0 00-.252.013c-.353.016-.647.139-.882.366-.235.237-.352.54-.352.912v3.581a.137.137 0 01-.038.102.156.156 0 01-.113.05H55.44a.12.12 0 01-.1-.05.12.12 0 01-.051-.102V78.1c0-.042.017-.08.05-.114a.136.136 0 01.101-.038h1.159c.042 0 .08.013.113.038a.186.186 0 01.038.114v.57c0 .033.004.05.012.05.017.009.034 0 .05-.025.353-.549.845-.823 1.474-.823zm7.192 1.747c.15.43.226.957.226 1.582 0 .599-.071 1.113-.214 1.544-.185.556-.478.991-.881 1.303-.412.312-.928.468-1.55.468-.596 0-1.074-.215-1.435-.645-.017-.017-.034-.021-.05-.013-.017.009-.026.026-.026.051v2.746a.137.137 0 01-.038.102.156.156 0 01-.113.05h-1.159a.12.12 0 01-.1-.05.12.12 0 01-.05-.102V78.1c0-.042.016-.08.05-.114a.136.136 0 01.1-.038h1.159c.042 0 .08.013.113.038a.186.186 0 01.038.114v.38c0 .025.009.042.025.05.017.009.034 0 .05-.025.37-.439.853-.658 1.45-.658.595 0 1.099.156 1.51.468.412.312.71.747.895 1.304zm-1.638 3.1c.252-.388.378-.903.378-1.544 0-.616-.1-1.1-.302-1.455-.235-.413-.592-.62-1.07-.62-.437 0-.765.202-.983.607-.193.33-.29.819-.29 1.468 0 .667.105 1.173.315 1.519.218.371.533.557.945.557.445 0 .78-.177 1.007-.532zm6.272-4.847c.269 0 .504.055.706.165.067.033.092.097.075.19l-.214 1.139c-.008.1-.067.13-.176.088a1.388 1.388 0 00-.441-.063c-.11 0-.193.004-.252.013-.353.016-.647.139-.882.366-.235.237-.352.54-.352.912v3.581a.137.137 0 01-.038.102.156.156 0 01-.113.05h-1.16a.12.12 0 01-.1-.05.12.12 0 01-.05-.102V78.1c0-.042.017-.08.05-.114a.136.136 0 01.1-.038h1.16c.042 0 .08.013.113.038a.186.186 0 01.038.114v.57c0 .033.004.05.012.05.017.009.034 0 .05-.025.353-.549.844-.823 1.474-.823zm2.57-.81a.868.868 0 01-.643-.253.876.876 0 01-.252-.645c0-.262.084-.477.252-.646a.868.868 0 01.642-.253c.26 0 .475.084.643.253a.876.876 0 01.252.646.876.876 0 01-.252.645.867.867 0 01-.643.253zm-.605 7.353a.12.12 0 01-.1-.05.12.12 0 01-.051-.102v-6.176a.12.12 0 01.05-.101.12.12 0 01.1-.05h1.16c.042 0 .08.016.113.05.025.025.038.06.038.101v6.176a.137.137 0 01-.038.102.156.156 0 01-.113.05h-1.16zm5.378.076c-.53 0-.995-.08-1.398-.24-.395-.152-.701-.367-.92-.646a1.412 1.412 0 01-.327-.911v-.114c0-.042.012-.08.038-.114a.184.184 0 01.113-.038h1.108c.042 0 .08.013.114.038a.185.185 0 01.037.114v.025c0 .211.114.397.34.557.236.152.53.228.882.228.336 0 .609-.067.819-.202.21-.144.315-.321.315-.532a.483.483 0 00-.265-.443c-.168-.093-.445-.194-.831-.304L77 81.757a7.07 7.07 0 01-1.083-.406 2.134 2.134 0 01-.743-.594c-.201-.245-.302-.561-.302-.95 0-.59.23-1.058.692-1.404.462-.355 1.071-.532 1.827-.532.512 0 .961.08 1.347.24.386.17.684.397.894.684.21.295.315.629.315 1 0 .042-.012.08-.037.114a.184.184 0 01-.114.038h-1.07a.184.184 0 01-.114-.038.185.185 0 01-.037-.114c0-.22-.105-.401-.315-.544-.219-.152-.512-.228-.882-.228-.327 0-.592.059-.793.177-.21.127-.315.3-.315.519 0 .202.096.354.29.456.2.11.533.227.994.354l.277.076c.445.135.82.27 1.121.405.303.143.559.337.769.582.21.253.314.578.314.974 0 .6-.235 1.068-.705 1.405-.47.346-1.096.52-1.876.52zm9.244-4.037c.033.21.05.447.05.709l-.012.392c0 .101-.05.152-.152.152h-3.942c-.042 0-.063.02-.063.063.026.278.063.468.114.57.201.607.692.915 1.473.924.571 0 1.025-.237 1.36-.71.034-.05.076-.075.126-.075a.12.12 0 01.089.038l.78.645c.076.06.089.127.038.203-.26.371-.609.658-1.045.86a3.317 3.317 0 01-1.436.304c-.655 0-1.213-.148-1.675-.443a2.558 2.558 0 01-.995-1.24c-.193-.456-.29-1.088-.29-1.898 0-.49.05-.886.152-1.19.168-.59.482-1.059.944-1.405.47-.337 1.033-.506 1.688-.506 1.654 0 2.586.869 2.796 2.607zm-2.796-1.342c-.31 0-.571.08-.781.24a1.22 1.22 0 00-.428.646c-.05.144-.084.33-.1.557-.018.042 0 .063.05.063H85.2c.042 0 .063-.02.063-.063a2.405 2.405 0 00-.076-.48 1.216 1.216 0 00-.453-.71c-.218-.168-.495-.253-.831-.253z" fill="#fff"/><path d="M38.74 102.259c-.092 0-.15-.042-.176-.127l-2.23-8.568-.012-.05c0-.076.046-.114.139-.114h1.562c.083 0 .138.042.163.126l1.197 5.151c.008.034.02.05.037.05.017 0 .03-.016.038-.05l1.159-5.138c.025-.093.08-.14.164-.14h1.523c.093 0 .152.043.177.127l1.26 5.151c.008.026.02.042.037.05.017 0 .03-.016.038-.05l1.158-5.138c.026-.093.08-.14.164-.14h1.486c.118 0 .164.056.139.165l-2.066 8.568c-.025.085-.084.127-.176.127h-1.499c-.084 0-.138-.042-.163-.127l-1.285-5.48c-.008-.033-.02-.05-.038-.05-.017 0-.03.017-.038.05l-1.196 5.468c-.017.092-.071.139-.164.139H38.74zm9.244 0a.156.156 0 01-.113-.051.136.136 0 01-.038-.101v-8.555c0-.043.013-.076.038-.102a.157.157 0 01.113-.05h1.474a.12.12 0 01.1.05.12.12 0 01.051.102v8.555a.12.12 0 01-.05.101.12.12 0 01-.101.051h-1.474zm8.224-8.707c0-.043.013-.076.038-.102a.156.156 0 01.114-.05h1.473a.12.12 0 01.1.05.12.12 0 01.051.102v8.555a.12.12 0 01-.05.101.12.12 0 01-.1.051H56.41c-.084 0-.143-.034-.176-.101l-3.262-5.417c-.017-.025-.034-.034-.05-.025-.017 0-.026.017-.026.05l.025 5.341a.12.12 0 01-.05.101.12.12 0 01-.1.051h-1.474a.156.156 0 01-.114-.051.136.136 0 01-.037-.101v-8.555c0-.043.012-.076.037-.102a.157.157 0 01.114-.05h1.423c.084 0 .143.033.176.101l3.25 5.391c.016.026.033.034.05.026.017 0 .025-.017.025-.05l-.012-5.316zm9.396-.152a.12.12 0 01.1.05.12.12 0 01.05.102v1.24a.12.12 0 01-.05.101.12.12 0 01-.1.05h-2.255c-.042 0-.063.022-.063.064v7.1a.12.12 0 01-.05.101.119.119 0 01-.1.051h-1.474a.156.156 0 01-.114-.051.136.136 0 01-.037-.101v-7.1c0-.042-.021-.063-.063-.063h-2.192a.157.157 0 01-.113-.05.137.137 0 01-.038-.102v-1.24c0-.043.013-.076.038-.102a.157.157 0 01.113-.05h6.348zm7.405 1.38a.138.138 0 01-.038.1.156.156 0 01-.113.051h-4.13c-.043 0-.064.021-.064.063v1.962c0 .042.021.063.063.063h2.708c.042 0 .075.013.1.038.034.034.051.072.051.114V98.4c0 .042-.017.08-.05.114a.136.136 0 01-.101.038h-2.708c-.042 0-.063.02-.063.063v2.05c0 .042.021.063.063.063h4.131c.042 0 .08.013.113.038a.187.187 0 01.038.114v1.228a.137.137 0 01-.038.101.156.156 0 01-.113.051h-5.819a.156.156 0 01-.113-.051.137.137 0 01-.038-.101v-8.555c0-.043.013-.076.038-.102a.157.157 0 01.114-.05h5.818c.042 0 .08.017.113.05.025.026.038.06.038.102v1.227zm6.07 7.479a.178.178 0 01-.176-.114l-1.574-3.506c-.017-.033-.042-.05-.076-.05h-1.17c-.043 0-.064.02-.064.063v3.455a.12.12 0 01-.05.101.12.12 0 01-.101.051h-1.474a.156.156 0 01-.113-.051.137.137 0 01-.038-.101v-8.555c0-.043.013-.076.038-.102a.157.157 0 01.113-.05h3.602c.538 0 1.008.11 1.411.329.411.22.726.531.945.936.226.405.34.874.34 1.405 0 .574-.143 1.063-.429 1.468a2.27 2.27 0 01-1.196.874c-.042.016-.055.046-.038.088l1.713 3.582a.19.19 0 01.025.076c0 .067-.046.101-.138.101h-1.55zm-2.997-7.328c-.042 0-.063.021-.063.063v2.165c0 .042.021.063.063.063h1.65c.353 0 .638-.106.856-.317.227-.21.34-.485.34-.822 0-.338-.113-.616-.34-.835-.218-.211-.503-.317-.856-.317h-1.65zM47.43 112.548c-.017.017-.02.034-.012.051.008.017.025.025.05.025h3.413c.042 0 .08.013.114.038a.187.187 0 01.037.114v1.227a.139.139 0 01-.037.102.159.159 0 01-.114.05h-5.667a.159.159 0 01-.114-.05.139.139 0 01-.037-.102v-1.164c0-.076.025-.139.075-.19.412-.405.831-.843 1.26-1.316.428-.481.696-.78.806-.899.235-.278.474-.544.718-.797.764-.852 1.146-1.485 1.146-1.898a.957.957 0 00-.315-.734c-.21-.186-.483-.279-.819-.279-.336 0-.609.093-.819.279a.986.986 0 00-.314.759v.317c0 .042-.017.08-.05.113a.133.133 0 01-.101.038h-1.487a.133.133 0 01-.1-.038.155.155 0 01-.05-.113v-.595a2.21 2.21 0 01.428-1.215c.26-.346.604-.612 1.032-.798a3.71 3.71 0 011.461-.278c.596 0 1.117.11 1.562.329.436.228.776.532 1.02.911.235.38.353.802.353 1.266 0 .354-.089.717-.265 1.088-.176.371-.44.772-.793 1.203-.26.329-.542.653-.844.974-.302.321-.752.785-1.348 1.392l-.189.19zm7.695 1.747c-.923 0-1.654-.262-2.191-.785-.537-.515-.806-1.219-.806-2.114v-3.341c0-.877.269-1.573.806-2.088.537-.515 1.268-.772 2.191-.772.924 0 1.659.257 2.204.772.538.515.806 1.211.806 2.088v3.341c0 .895-.268 1.599-.806 2.114-.545.523-1.28.785-2.204.785zm0-1.532c.378 0 .68-.118.907-.354.219-.228.328-.536.328-.924v-3.48c0-.389-.11-.696-.328-.924-.226-.237-.529-.355-.907-.355-.369 0-.663.118-.881.355-.227.228-.34.535-.34.924v3.48c0 .388.113.696.34.924.218.236.512.354.881.354zm6.537-.215c-.017.017-.021.034-.013.051.009.017.025.025.05.025h3.414c.042 0 .08.013.113.038a.187.187 0 01.038.114v1.227a.139.139 0 01-.038.102.158.158 0 01-.113.05h-5.668a.12.12 0 01-.1-.05.122.122 0 01-.05-.102v-1.164a.26.26 0 01.075-.19c.411-.405.83-.843 1.259-1.316.428-.481.697-.78.806-.899.235-.278.474-.544.718-.797.764-.852 1.146-1.485 1.146-1.898a.957.957 0 00-.315-.734c-.21-.186-.483-.279-.819-.279-.335 0-.608.093-.818.279a.986.986 0 00-.315.759v.317c0 .042-.012.08-.038.113a.18.18 0 01-.113.038h-1.486a.133.133 0 01-.1-.038.155.155 0 01-.051-.113v-.595c.025-.456.168-.861.428-1.215.26-.346.609-.612 1.045-.798a3.618 3.618 0 011.449-.278c.596 0 1.116.11 1.561.329.437.228.777.532 1.02.911.235.38.353.802.353 1.266 0 .354-.088.717-.264 1.088-.177.371-.441.772-.794 1.203-.26.329-.541.653-.844.974-.302.321-.751.785-1.347 1.392l-.19.19zm9.95-2.62c.167.388.251.836.251 1.342 0 .455-.076.877-.227 1.265a2.51 2.51 0 01-1.007 1.266c-.479.304-1.041.456-1.688.456-.638 0-1.196-.161-1.675-.481a2.666 2.666 0 01-1.045-1.304 3.614 3.614 0 01-.202-1.063c0-.101.05-.152.151-.152h1.487c.1 0 .15.051.15.152.034.278.08.485.14.62a.967.967 0 00.377.506c.168.127.37.19.605.19.47 0 .793-.207.97-.62.117-.253.176-.548.176-.886 0-.396-.063-.721-.19-.974-.192-.397-.516-.595-.969-.595a.64.64 0 00-.29.076c-.1.059-.222.139-.365.24a.163.163 0 01-.1.038c-.051 0-.089-.025-.114-.076l-.743-1.05a.157.157 0 01-.025-.089.17.17 0 01.05-.126l2.003-1.759c.016-.017.025-.034.025-.051-.009-.017-.025-.025-.05-.025h-2.96a.119.119 0 01-.1-.051.12.12 0 01-.051-.101v-1.228a.12.12 0 01.05-.101.119.119 0 01.1-.051H71.6c.042 0 .08.017.113.051a.136.136 0 01.038.101v1.392c0 .068-.03.131-.088.19l-1.65 1.519c-.017.017-.021.034-.013.05 0 .017.017.026.05.026.731.143 1.251.578 1.562 1.303z" fill="#252530"/></g><defs><clipPath id="clip0_7433_31501"><path fill="#fff" d="M0 0h117v132H0z"/></clipPath></defs></svg>