<svg width="117" height="132" fill="none" xmlns="http://www.w3.org/2000/svg"><g clip-path="url(#clip0_7433_31500)"><path d="M9.697 102.765l49.747 25.438 47.858-25.438V3.29H9.697v99.475z" fill="#fff"/><path d="M108.311 3.67L8.691 104.537l51.637 25.691 47.983-24.679V3.67z" fill="#F2F3F2"/><path d="M6.422 36.449v68.468l1.763.885 49.747 25.439 1.511.759 1.512-.759 47.984-25.439 1.763-.885V0H6.422v36.449zm3.274 66.569V3.291h97.731v99.727l-47.984 25.438-49.747-25.438z" fill="#DCDEDC"/><path d="M58.563 4.936c.504 0 1.008 0 1.511.126l-1.511 2.911c-2.267-.126-4.282 1.645-4.408 3.923-.126 2.278 1.637 4.303 3.904 4.43h.504c1.008 0 2.015-.38 2.77-1.013l1.638 2.785a7.609 7.609 0 01-4.408 1.392c-4.03.127-7.43-2.91-7.556-6.96-.127-4.05 2.896-7.468 6.926-7.594h.63zm5.164 6.201l1.889 3.164-1.89 3.037-1.763-3.037h-3.652l1.89-3.164h3.526zm-3.023-1.139c0-.506.126-1.012.378-1.392.252-.38.755-.76 1.133-1.013l.252-.126c.504-.253.63-.38.63-.633s-.378-.506-.63-.506c-.504 0-.881.253-1.133.76l-.63-.634c.126-.253.378-.506.63-.759.377-.253.755-.253 1.133-.253s.882.127 1.134.38c.252.253.503.632.503 1.012 0 .633-.377 1.14-1.133 1.392l-.378.253c-.378.254-.63.38-.756.76h2.267v.886l-3.4-.127zm-2.141 15.82l11.965-6.834V0H46.472v18.857l12.091 6.96zm54.533 44.801H4.03L0 79.48l4.03 8.859h109.066l3.904-8.86-3.904-8.859z" fill="#FF492C"/><path d="M23.54 64.924a.255.255 0 01-.189-.076.303.303 0 01-.076-.202v-15.39c0-.075.026-.143.076-.202a.256.256 0 01.189-.076h2.657c.076 0 .139.025.19.076a.28.28 0 01.087.202v12.795c0 .076.038.114.114.114h7.405a.3.3 0 01.202.076c.05.06.075.127.075.203v2.202a.303.303 0 01-.075.202.3.3 0 01-.202.076H23.54zm22.808-7.062c.092.574.122 1.22.088 1.937-.008.185-.105.278-.29.278h-7.002c-.092 0-.122.038-.088.114.042.304.122.607.24.911.394.844 1.196 1.266 2.405 1.266.965-.009 1.73-.401 2.292-1.177.059-.093.126-.14.201-.14.05 0 .105.03.164.09l1.625 1.62c.075.075.113.143.113.202 0 .033-.03.097-.088.19-.495.615-1.138 1.096-1.927 1.442-.78.338-1.642.507-2.582.507-1.301 0-2.401-.296-3.3-.886-.898-.591-1.544-1.418-1.939-2.481-.32-.76-.479-1.755-.479-2.987 0-.835.114-1.57.34-2.202.353-1.08.962-1.94 1.827-2.582.873-.632 1.905-.949 3.098-.949 1.511 0 2.724.439 3.64 1.316.915.878 1.469 2.055 1.662 3.531zm-5.277-2.075c-.957 0-1.587.447-1.89 1.341-.058.203-.108.447-.15.734 0 .076.038.114.113.114h3.917c.092 0 .122-.038.088-.114-.075-.438-.113-.65-.113-.633-.135-.455-.37-.81-.706-1.063-.344-.253-.764-.38-1.259-.38zm11.876-2.76c.983 0 1.86.174 2.633.52.772.337 1.372.806 1.8 1.405.429.59.643 1.248.643 1.974v7.72a.303.303 0 01-.076.202.256.256 0 01-.189.076h-2.657a.255.255 0 01-.189-.076.28.28 0 01-.088-.202v-.747c0-.042-.013-.072-.038-.088-.034-.017-.063-.005-.088.038-.638.835-1.658 1.253-3.06 1.253-1.184 0-2.137-.287-2.86-.861-.73-.574-1.095-1.426-1.095-2.557 0-1.164.411-2.07 1.234-2.72.815-.642 1.977-.962 3.489-.962h2.305c.075 0 .113-.038.113-.114v-.507c0-.497-.151-.89-.454-1.177-.302-.278-.755-.417-1.36-.417-.462 0-.848.084-1.158.253-.311.169-.513.405-.605.709-.042.168-.139.244-.29.227l-2.745-.367c-.185-.033-.269-.1-.252-.202.059-.641.31-1.22.756-1.734.445-.515 1.037-.915 1.775-1.202.73-.295 1.55-.443 2.456-.443zm-.453 9.682c.646 0 1.196-.173 1.65-.518.453-.346.68-.794.68-1.342v-.822c0-.077-.038-.114-.113-.114h-1.625c-.68 0-1.213.13-1.6.392-.386.253-.579.616-.579 1.088 0 .414.143.734.428.962.286.236.672.355 1.159.355zm15.012-13.453c0-.075.025-.143.076-.202a.256.256 0 01.189-.076h2.657c.076 0 .139.025.189.076.05.059.075.127.075.202v15.39a.303.303 0 01-.075.202.255.255 0 01-.189.076h-2.657a.256.256 0 01-.19-.076.303.303 0 01-.075-.202v-.747c0-.042-.017-.067-.05-.076a.087.087 0 00-.088.026c-.638.835-1.507 1.253-2.607 1.253-1.058 0-1.97-.296-2.733-.886-.764-.591-1.314-1.401-1.65-2.43-.252-.794-.378-1.713-.378-2.76 0-1.08.134-2.02.403-2.822.353-.978.903-1.75 1.65-2.316.747-.573 1.67-.86 2.77-.86 1.092 0 1.94.38 2.545 1.139.025.05.054.067.088.05.033-.016.05-.046.05-.088v-4.873zm-.478 12.112c.302-.557.453-1.325.453-2.303 0-1.013-.168-1.81-.504-2.392-.344-.59-.848-.886-1.511-.886-.714 0-1.251.295-1.612.886-.378.599-.567 1.404-.567 2.417 0 .911.16 1.67.479 2.278.378.658.936.987 1.675.987.68 0 1.209-.329 1.587-.987zm16.385-3.506c.092.574.121 1.22.088 1.937-.009.185-.105.278-.29.278H76.21c-.093 0-.122.038-.088.114.042.304.121.607.239.911.394.844 1.196 1.266 2.405 1.266.966-.009 1.73-.401 2.293-1.177.058-.093.125-.14.201-.14.05 0 .105.03.164.09l1.624 1.62c.076.075.114.143.114.202 0 .033-.03.097-.088.19-.496.615-1.138 1.096-1.927 1.442-.781.338-1.642.507-2.582.507-1.301 0-2.401-.296-3.3-.886-.898-.591-1.545-1.418-1.94-2.481-.318-.76-.478-1.755-.478-2.987 0-.835.113-1.57.34-2.202.353-1.08.961-1.94 1.826-2.582.873-.632 1.906-.949 3.099-.949 1.51 0 2.724.439 3.64 1.316.914.878 1.468 2.055 1.662 3.531zm-5.277-2.075c-.957 0-1.587.447-1.89 1.341-.058.203-.109.447-.15.734 0 .076.037.114.113.114h3.916c.093 0 .122-.038.089-.114-.076-.438-.114-.65-.114-.633-.134-.455-.37-.81-.705-1.063-.344-.253-.764-.38-1.26-.38zm13.148-2.734c.546 0 .974.106 1.285.317.126.067.172.18.138.341l-.478 2.607c-.009.178-.114.228-.315.152a2.502 2.502 0 00-.794-.114c-.117 0-.281.017-.49.05a2.212 2.212 0 00-1.386.596c-.378.362-.567.84-.567 1.43v6.214a.303.303 0 01-.076.202.3.3 0 01-.201.076h-2.645a.3.3 0 01-.201-.076.303.303 0 01-.076-.202V53.483c0-.075.025-.139.076-.19a.3.3 0 01.201-.075H88.4a.3.3 0 01.201.076c.05.05.076.114.076.19v.873c0 .042.013.071.038.088.033.017.059.009.075-.025.622-.911 1.453-1.367 2.494-1.367z" fill="#252530"/><path d="M38.79 84.414c-.093 0-.151-.042-.177-.126l-2.292-8.568-.012-.05c0-.077.046-.115.138-.115h1.234c.093 0 .152.042.177.127l1.435 5.77c.009.026.021.039.038.039.017 0 .03-.013.038-.038l1.373-5.771c.025-.085.08-.127.164-.127h1.209c.092 0 .15.042.176.127l1.46 5.783c.01.026.022.038.038.038.017 0 .03-.012.038-.038l1.41-5.783c.026-.085.085-.127.177-.127h1.172c.117 0 .163.055.138.165l-2.179 8.568c-.025.084-.084.126-.176.126h-1.171c-.093 0-.151-.042-.177-.126l-1.473-6.037c-.009-.026-.021-.042-.038-.05-.017 0-.03.016-.038.05l-1.41 6.037c-.026.084-.08.126-.164.126H38.79zm9.332 0a.156.156 0 01-.113-.05.137.137 0 01-.038-.102v-8.555c0-.042.012-.076.038-.101a.156.156 0 01.113-.05h1.159a.12.12 0 01.1.05.12.12 0 01.05.101v8.555a.12.12 0 01-.05.102.12.12 0 01-.1.05h-1.16zm8.274-8.707c0-.042.013-.076.038-.101a.157.157 0 01.114-.05h1.158a.12.12 0 01.1.05.12.12 0 01.051.101v8.555a.12.12 0 01-.05.102.12.12 0 01-.1.05h-1.122c-.084 0-.142-.034-.176-.101l-3.627-5.974c-.017-.025-.034-.037-.05-.037-.017.008-.026.029-.026.063l.025 5.897a.12.12 0 01-.05.102.12.12 0 01-.1.05h-1.16a.156.156 0 01-.113-.05.137.137 0 01-.038-.102v-8.555c0-.042.013-.076.038-.101a.156.156 0 01.114-.05h1.12c.084 0 .143.033.177.1l3.614 5.974c.017.025.034.034.05.025.017 0 .026-.017.026-.05l-.013-5.898zm9.093-.152a.12.12 0 01.101.05.12.12 0 01.05.102v.975a.12.12 0 01-.05.1.12.12 0 01-.1.051h-2.318c-.042 0-.063.022-.063.064v7.365a.137.137 0 01-.038.102.156.156 0 01-.113.05h-1.159a.12.12 0 01-.1-.05.12.12 0 01-.05-.102v-7.365c0-.043-.022-.064-.064-.064h-2.229a.157.157 0 01-.113-.05.137.137 0 01-.038-.102v-.974c0-.042.012-.076.038-.101a.157.157 0 01.113-.05h6.133zm7.469 1.114a.12.12 0 01-.05.101.12.12 0 01-.102.05h-4.294c-.042 0-.063.022-.063.064v2.367c0 .042.02.063.063.063h2.884c.042 0 .08.013.113.038a.186.186 0 01.038.114v.962c0 .042-.013.08-.038.114a.183.183 0 01-.113.037h-2.884c-.042 0-.063.022-.063.064v2.442c0 .043.02.064.063.064h4.294a.12.12 0 01.101.05.12.12 0 01.05.102v.961a.12.12 0 01-.05.102.12.12 0 01-.1.05h-5.668a.156.156 0 01-.113-.05.137.137 0 01-.038-.102v-8.555c0-.042.013-.076.038-.101a.157.157 0 01.113-.05h5.668a.12.12 0 01.1.05.12.12 0 01.05.101v.962zm6.435 7.745a.178.178 0 01-.176-.114l-1.662-3.644c-.017-.034-.042-.051-.076-.051h-1.511c-.042 0-.063.02-.063.063v3.594a.12.12 0 01-.05.102.12.12 0 01-.101.05h-1.16a.156.156 0 01-.112-.05.137.137 0 01-.038-.102v-8.555c0-.042.012-.076.038-.101a.156.156 0 01.113-.05h3.463c.512 0 .966.105 1.36.316.395.219.702.523.92.91.218.397.327.849.327 1.355 0 .582-.15 1.076-.453 1.48-.294.414-.705.701-1.234.861-.017 0-.03.009-.038.026a.054.054 0 000 .05l1.776 3.683a.194.194 0 01.025.076c0 .067-.046.101-.139.101h-1.209zm-3.425-7.593c-.042 0-.063.02-.063.063v2.519c0 .042.02.063.063.063h1.889c.403 0 .73-.122.982-.367.244-.236.365-.553.365-.95 0-.396-.121-.716-.365-.961-.252-.245-.58-.367-.982-.367h-1.89z" fill="#fff"/><path d="M42.354 107.271c-.026.025-.034.05-.026.076.017.025.042.037.076.037h4.95c.058 0 .109.022.15.064.051.042.076.093.076.152v1.784c0 .059-.025.11-.075.152a.206.206 0 01-.152.063h-8.21a.221.221 0 01-.165-.063.208.208 0 01-.063-.152v-1.696a.38.38 0 01.114-.278 40.289 40.289 0 001.826-1.911 97.162 97.162 0 011.171-1.291c.336-.405.68-.793 1.033-1.164 1.108-1.232 1.662-2.148 1.662-2.747 0-.43-.15-.784-.453-1.063-.302-.27-.697-.405-1.184-.405s-.882.135-1.184.405c-.31.279-.466.646-.466 1.101v.456a.21.21 0 01-.063.152.206.206 0 01-.15.063h-2.154a.206.206 0 01-.152-.063.193.193 0 01-.075-.152v-.86a3.26 3.26 0 01.63-1.76 3.635 3.635 0 011.498-1.164c.63-.27 1.335-.405 2.116-.405.865 0 1.616.164 2.254.493.639.32 1.13.755 1.474 1.304.353.557.529 1.168.529 1.835 0 .515-.13 1.042-.39 1.582-.252.54-.634 1.122-1.147 1.746-.377.473-.785.945-1.221 1.418-.437.464-1.087 1.135-1.952 2.012l-.277.279zm11.158 2.531c-1.343 0-2.401-.376-3.174-1.127-.78-.751-1.17-1.776-1.17-3.075v-4.847c0-1.274.39-2.282 1.17-3.025.773-.75 1.83-1.126 3.174-1.126 1.335 0 2.397.375 3.186 1.126.781.743 1.172 1.75 1.172 3.025v4.847c0 1.299-.39 2.324-1.172 3.075-.789.751-1.85 1.127-3.186 1.127zm0-2.215c.546 0 .978-.169 1.297-.506.328-.338.491-.789.491-1.354v-5.05c0-.557-.163-1.004-.49-1.342-.32-.337-.752-.506-1.298-.506-.537 0-.965.169-1.285.506-.327.338-.49.785-.49 1.342v5.05c0 .565.163 1.016.49 1.354.32.337.748.506 1.285.506zm9.47-.316c-.024.025-.029.05-.012.076.009.025.034.037.076.037h4.95c.058 0 .109.022.15.064a.208.208 0 01.064.152v1.784c0 .059-.021.11-.063.152a.206.206 0 01-.152.063h-8.224a.206.206 0 01-.15-.063.208.208 0 01-.064-.152v-1.696c0-.109.034-.202.101-.278a33.266 33.266 0 001.826-1.911 97.162 97.162 0 011.172-1.291c.344-.405.692-.793 1.045-1.164 1.108-1.232 1.662-2.148 1.662-2.747 0-.43-.15-.784-.453-1.063-.31-.27-.71-.405-1.197-.405-.487 0-.881.135-1.184.405-.302.279-.453.646-.453 1.101v.456a.21.21 0 01-.063.152.221.221 0 01-.164.063h-2.153a.206.206 0 01-.151-.063.21.21 0 01-.063-.152v-.86c.033-.659.239-1.245.617-1.76a3.622 3.622 0 011.511-1.164c.63-.27 1.33-.405 2.103-.405.865 0 1.617.164 2.255.493.646.32 1.142.755 1.486 1.304.344.557.516 1.168.516 1.835 0 .515-.126 1.042-.378 1.582-.26.54-.646 1.122-1.158 1.746-.378.473-.785.945-1.222 1.418-.437.464-1.087 1.135-1.952 2.012l-.277.279zm14.434-3.797c.243.557.365 1.202.365 1.936 0 .667-.11 1.278-.327 1.835a3.615 3.615 0 01-1.474 1.835c-.688.448-1.503.671-2.443.671-.924 0-1.734-.232-2.43-.696a4.002 4.002 0 01-1.512-1.898 5.307 5.307 0 01-.29-1.544c0-.144.071-.215.214-.215h2.166c.143 0 .215.071.215.215.05.405.117.704.201.898.11.321.29.57.542.747.243.177.537.266.881.266.68 0 1.15-.3 1.41-.899.169-.363.253-.789.253-1.278 0-.582-.093-1.055-.277-1.418-.278-.573-.743-.86-1.398-.86a.957.957 0 00-.429.114 9.912 9.912 0 00-.528.341.254.254 0 01-.139.051.17.17 0 01-.164-.101l-1.083-1.532a.202.202 0 01-.038-.126c0-.076.025-.135.076-.177l2.897-2.557c.025-.025.037-.05.037-.076-.008-.025-.029-.038-.063-.038h-4.294a.25.25 0 01-.164-.063.208.208 0 01-.063-.152V96.97c0-.06.021-.11.063-.152a.25.25 0 01.164-.063h7.607c.067 0 .121.02.163.063a.208.208 0 01.063.152v2.025a.418.418 0 01-.126.278l-2.392 2.202c-.026.026-.034.047-.026.064 0 .025.026.037.076.037 1.058.211 1.813.844 2.267 1.899z" fill="#252530"/></g><defs><clipPath id="clip0_7433_31500"><path fill="#fff" d="M0 0h117v132H0z"/></clipPath></defs></svg>