<svg width="117" height="132" fill="none" xmlns="http://www.w3.org/2000/svg"><g clip-path="url(#clip0_7433_31499)"><path d="M9.686 102.765l49.693 25.438 47.807-25.438V3.29h-97.5v99.475z" fill="#fff"/><path d="M108.195 3.67L8.682 104.537l51.58 25.691 47.933-24.679V3.67z" fill="#F2F3F2"/><path d="M6.416 36.449v68.468l1.761.885 49.694 25.439 1.51.759 1.51-.759 47.931-25.439 1.762-.885V0H6.416v36.449zm3.271 66.569V3.291h97.626v99.727L59.38 128.456 9.688 103.018z" fill="#DCDEDC"/><path d="M58.563 4.95c.504 0 1.008 0 1.511.127l-1.511 2.919c-2.267-.127-4.282 1.65-4.408 3.934-.126 2.285 1.637 4.316 3.904 4.443h.504a4.38 4.38 0 002.77-1.016l1.638 2.793a7.594 7.594 0 01-4.408 1.396c-4.03.127-7.43-2.92-7.556-6.98-.127-4.062 2.896-7.49 6.926-7.616h.63zm5.164 6.219l1.889 3.173-1.89 3.046-1.763-3.046h-3.652l1.89-3.173h3.526zm-3.023-1.142c0-.508.126-1.016.378-1.396.252-.381.755-.762 1.133-1.016l.252-.127c.504-.254.63-.38.63-.634s-.378-.508-.63-.508c-.504 0-.881.254-1.133.762l-.63-.635c.126-.254.378-.508.63-.762.377-.253.755-.253 1.133-.253s.882.127 1.134.38c.252.254.503.635.503 1.016 0 .634-.377 1.142-1.133 1.396l-.378.254c-.378.254-.63.38-.756.761h2.267v.889l-3.4-.127zm-2.141 15.865l11.965-6.854V0H46.472v18.911l12.091 6.98zm54.533 44.93H4.03L0 79.706l4.03 8.885h109.066L117 79.706l-3.904-8.884z" fill="#FF492C"/><path d="M23.514 64.924a.255.255 0 01-.188-.076.303.303 0 01-.076-.202v-15.39c0-.075.025-.143.076-.202a.255.255 0 01.188-.076h2.655c.075 0 .138.025.188.076a.28.28 0 01.088.202v12.795c0 .076.038.114.114.114h7.397a.3.3 0 01.201.076c.05.06.076.127.076.203v2.202a.303.303 0 01-.076.202.3.3 0 01-.2.076H23.513zm22.784-7.062c.092.574.121 1.22.088 1.937-.009.185-.105.278-.29.278h-6.994c-.093 0-.122.038-.088.114.041.304.121.607.239.911.394.844 1.195 1.266 2.403 1.266.964-.009 1.727-.401 2.29-1.177.058-.093.125-.14.2-.14.05 0 .105.03.164.09l1.623 1.62c.075.075.113.143.113.202 0 .033-.03.097-.088.19-.495.615-1.136 1.096-1.925 1.442-.78.338-1.64.507-2.579.507-1.3 0-2.398-.296-3.296-.886-.897-.591-1.543-1.418-1.937-2.481-.32-.76-.478-1.755-.478-2.987 0-.835.113-1.57.34-2.202.352-1.08.96-1.94 1.824-2.582.872-.632 1.903-.949 3.094-.949 1.51 0 2.722.439 3.636 1.316.914.878 1.468 2.055 1.66 3.531zm-5.272-2.075c-.956 0-1.585.447-1.887 1.341-.058.203-.109.447-.15.734 0 .076.037.114.113.114h3.912c.092 0 .122-.038.088-.114-.075-.438-.113-.65-.113-.633-.134-.455-.369-.81-.704-1.063-.344-.253-.764-.38-1.258-.38zm11.864-2.76c.981 0 1.858.174 2.63.52.771.337 1.37.806 1.798 1.405.428.59.642 1.248.642 1.974v7.72a.303.303 0 01-.075.202.255.255 0 01-.19.076h-2.654a.255.255 0 01-.188-.076.28.28 0 01-.089-.202v-.747c0-.042-.012-.072-.037-.088-.034-.017-.063-.005-.088.038-.638.835-1.657 1.253-3.057 1.253-1.183 0-2.135-.287-2.856-.861-.73-.574-1.095-1.426-1.095-2.557 0-1.164.411-2.07 1.233-2.72.814-.642 1.975-.962 3.485-.962h2.302c.076 0 .113-.038.113-.114v-.507c0-.497-.15-.89-.452-1.177-.302-.278-.755-.417-1.36-.417-.46 0-.846.084-1.157.253-.31.169-.511.405-.603.709-.042.168-.139.244-.29.227l-2.742-.367c-.185-.033-.269-.1-.252-.202.059-.641.31-1.22.755-1.734.444-.515 1.036-.915 1.774-1.202.73-.295 1.547-.443 2.453-.443zm-.453 9.682c.646 0 1.195-.173 1.648-.518.453-.346.68-.794.68-1.342v-.822c0-.077-.038-.114-.114-.114h-1.623c-.679 0-1.212.13-1.597.392-.386.253-.58.616-.58 1.088 0 .414.144.734.429.962.285.236.67.355 1.157.355zm14.996-13.453c0-.075.025-.143.076-.202a.255.255 0 01.188-.076h2.655c.075 0 .138.025.189.076.05.059.075.127.075.202v15.39a.303.303 0 01-.075.202.255.255 0 01-.19.076h-2.654a.255.255 0 01-.188-.076.303.303 0 01-.076-.202v-.747c0-.042-.017-.067-.05-.076a.087.087 0 00-.088.026c-.638.835-1.506 1.253-2.604 1.253-1.057 0-1.967-.296-2.73-.886-.764-.591-1.313-1.401-1.648-2.43-.252-.794-.378-1.713-.378-2.76 0-1.08.134-2.02.403-2.822.352-.978.901-1.75 1.648-2.316.746-.573 1.669-.86 2.768-.86 1.09 0 1.937.38 2.54 1.139.026.05.055.067.089.05.034-.016.05-.046.05-.088v-4.873zm-.478 12.112c.302-.557.453-1.325.453-2.303 0-1.013-.168-1.81-.503-2.392-.344-.59-.847-.886-1.51-.886-.713 0-1.25.295-1.61.886-.378.599-.566 1.404-.566 2.417 0 .911.16 1.67.478 2.278.377.658.935.987 1.673.987.68 0 1.208-.329 1.585-.987zm16.368-3.506c.092.574.121 1.22.088 1.937-.009.185-.105.278-.29.278h-6.995c-.092 0-.121.038-.088.114.042.304.122.607.24.911.394.844 1.195 1.266 2.402 1.266.965-.009 1.728-.401 2.29-1.177.059-.093.126-.14.201-.14.05 0 .105.03.164.09l1.623 1.62c.075.075.113.143.113.202 0 .033-.03.097-.088.19-.495.615-1.136 1.096-1.925 1.442-.78.338-1.64.507-2.579.507-1.3 0-2.399-.296-3.296-.886-.898-.591-1.543-1.418-1.938-2.481-.318-.76-.478-1.755-.478-2.987 0-.835.114-1.57.34-2.202.352-1.08.96-1.94 1.824-2.582.873-.632 1.904-.949 3.095-.949 1.51 0 2.722.439 3.636 1.316.914.878 1.468 2.055 1.66 3.531zm-5.272-2.075c-.956 0-1.585.447-1.887 1.341a5.585 5.585 0 00-.15.734c0 .076.037.114.112.114h3.913c.092 0 .122-.038.088-.114-.075-.438-.113-.65-.113-.633-.134-.455-.37-.81-.705-1.063-.343-.253-.763-.38-1.258-.38zm13.135-2.734c.545 0 .972.106 1.283.317.126.067.172.18.138.341l-.478 2.607c-.008.178-.113.228-.315.152a2.496 2.496 0 00-.792-.114c-.118 0-.281.017-.49.05a2.208 2.208 0 00-1.385.596c-.377.362-.566.84-.566 1.43v6.214a.303.303 0 01-.075.202.3.3 0 01-.201.076h-2.642a.3.3 0 01-.202-.076.303.303 0 01-.075-.202V53.483c0-.075.025-.139.075-.19a.3.3 0 01.202-.075h2.642a.3.3 0 01.2.076c.051.05.076.114.076.19v.873c0 .042.013.071.038.088.034.017.059.009.076-.025.62-.911 1.45-1.367 2.49-1.367z" fill="#252530"/><path d="M20.759 84.515c-.655 0-1.225-.105-1.711-.316-.487-.21-.864-.506-1.133-.886-.26-.38-.39-.827-.39-1.341v-.317c0-.042.017-.08.05-.114a.136.136 0 01.101-.038h1.12c.042 0 .08.013.113.038a.186.186 0 01.038.114v.24c0 .389.172.71.516.963.344.261.813.392 1.409.392.512 0 .897-.11 1.157-.33.26-.219.39-.501.39-.847a.91.91 0 00-.214-.608 2.085 2.085 0 00-.603-.443 13.99 13.99 0 00-1.196-.506 12.413 12.413 0 01-1.446-.62 2.62 2.62 0 01-.919-.797c-.251-.33-.377-.743-.377-1.24 0-.743.268-1.33.805-1.76.537-.43 1.254-.645 2.151-.645.63 0 1.187.11 1.674.329.477.22.85.527 1.12.924.267.388.402.84.402 1.354v.215c0 .042-.017.08-.05.114a.136.136 0 01-.101.038h-1.133a.136.136 0 01-.1-.038.158.158 0 01-.05-.114v-.14c0-.396-.16-.729-.479-.999-.327-.278-.775-.418-1.346-.418-.461 0-.817.098-1.069.291-.26.195-.39.469-.39.823 0 .253.067.46.201.62.134.16.336.304.604.43.269.136.684.304 1.246.507.595.228 1.073.434 1.434.62.352.186.658.443.918.772.252.338.378.755.378 1.253 0 .76-.281 1.362-.843 1.81-.554.447-1.313.67-2.277.67zm11.335-6.67c.646 0 1.153.195 1.522.583.36.397.541.945.541 1.645v4.19a.138.138 0 01-.038.1.156.156 0 01-.113.051h-1.145a.12.12 0 01-.1-.05.12.12 0 01-.05-.102v-3.885c0-.388-.101-.696-.303-.924-.21-.228-.486-.342-.83-.342s-.625.114-.843.342c-.218.228-.327.532-.327.911v3.898a.137.137 0 01-.038.102.156.156 0 01-.113.05h-1.145a.156.156 0 01-.113-.05.138.138 0 01-.038-.102v-3.885c0-.388-.105-.696-.314-.924-.21-.228-.487-.342-.83-.342-.32 0-.584.093-.793.279-.201.185-.319.439-.352.76v4.112a.138.138 0 01-.038.102.156.156 0 01-.113.05h-1.158a.12.12 0 01-.1-.05.12.12 0 01-.05-.102V78.1c0-.042.016-.08.05-.114a.135.135 0 01.1-.038h1.158c.041 0 .08.013.113.038a.186.186 0 01.038.114v.418c0 .025.008.042.025.05.017.009.033 0 .05-.025.184-.236.411-.41.68-.519.276-.118.582-.177.918-.177.41 0 .771.084 1.082.253.31.169.549.413.717.734.025.034.054.034.088 0a1.73 1.73 0 01.767-.747c.327-.16.692-.24 1.095-.24zm6 0c.53 0 .995.094 1.397.28.403.185.713.438.931.759.218.329.327.7.327 1.113v4.265a.137.137 0 01-.038.102.156.156 0 01-.113.05h-1.157a.12.12 0 01-.1-.05.12.12 0 01-.051-.102v-.405c0-.025-.008-.042-.025-.05-.017 0-.034.008-.05.025-.412.456-1.007.683-1.787.683-.63 0-1.145-.16-1.547-.48-.411-.321-.617-.798-.617-1.43 0-.659.23-1.173.692-1.545.453-.362 1.095-.544 1.925-.544h1.346c.042 0 .063-.02.063-.063v-.304c0-.329-.096-.586-.29-.772-.192-.177-.482-.266-.867-.266-.32 0-.575.06-.768.178a.719.719 0 00-.377.468c-.026.101-.084.143-.176.126l-1.22-.151a.28.28 0 01-.101-.038c-.034-.026-.047-.055-.038-.089.067-.515.344-.937.83-1.266.478-.329 1.082-.493 1.812-.493zm-.301 5.506c.41 0 .763-.11 1.057-.329.293-.22.44-.498.44-.835v-.595c0-.042-.021-.063-.063-.063H38.17c-.444 0-.792.084-1.044.253a.81.81 0 00-.39.721c0 .27.1.477.302.62.193.152.445.228.755.228zm4.567 1.063a.12.12 0 01-.101-.05.12.12 0 01-.05-.102v-8.555a.12.12 0 01.05-.101.12.12 0 01.1-.05h1.158c.042 0 .08.016.113.05a.137.137 0 01.038.101v8.555a.137.137 0 01-.038.102.156.156 0 01-.113.05H42.36zm3.006 0a.12.12 0 01-.1-.05.12.12 0 01-.05-.102v-8.555a.12.12 0 01.05-.101.12.12 0 01.1-.05h1.158c.042 0 .08.016.113.05a.137.137 0 01.038.101v8.555a.137.137 0 01-.038.102.156.156 0 01-.113.05h-1.158zm10.43-4.62c-.05.026-.05.051 0 .077.855.405 1.283 1.1 1.283 2.088 0 .801-.264 1.413-.793 1.835-.536.413-1.233.62-2.088.62h-3.17a.12.12 0 01-.101-.05.12.12 0 01-.05-.102v-8.555a.12.12 0 01.05-.101.12.12 0 01.1-.05h3.07c.914 0 1.619.197 2.114.594.495.396.742.995.742 1.797 0 .886-.386 1.502-1.157 1.848zm-3.397-2.973c-.042 0-.063.02-.063.063v2.341c0 .043.021.064.063.064h1.698c.445 0 .797-.106 1.057-.317.252-.22.377-.519.377-.898 0-.388-.125-.696-.377-.924-.26-.22-.612-.33-1.057-.33H52.4zm1.799 6.315c.436 0 .784-.118 1.044-.354.252-.237.378-.557.378-.962 0-.414-.13-.734-.39-.962-.26-.236-.613-.355-1.057-.355h-1.774c-.042 0-.063.022-.063.064v2.506c0 .042.021.063.063.063h1.799zm8.052-5.037c0-.042.012-.08.037-.114a.183.183 0 01.114-.038h1.144c.042 0 .08.013.114.038a.186.186 0 01.037.114v6.163a.137.137 0 01-.037.102.156.156 0 01-.114.05h-1.144a.156.156 0 01-.114-.05.138.138 0 01-.037-.102v-.405c0-.025-.009-.042-.026-.05-.016-.009-.033 0-.05.025-.344.447-.86.67-1.547.67-.638 0-1.17-.185-1.598-.556-.436-.371-.654-.899-.654-1.582v-4.265c0-.042.012-.08.038-.114a.183.183 0 01.113-.038h1.157c.042 0 .08.013.113.038a.186.186 0 01.038.114v3.847c0 .397.105.713.315.95.2.236.486.354.855.354.378 0 .68-.118.906-.355.226-.236.34-.552.34-.949V78.1zm5.397 6.391c-.529 0-.994-.08-1.397-.24-.394-.152-.7-.367-.918-.646a1.413 1.413 0 01-.327-.911v-.114c0-.042.012-.08.038-.114a.183.183 0 01.113-.038h1.107c.042 0 .075.013.1.038.034.034.05.072.05.114v.025c0 .211.114.397.34.557.235.152.529.228.881.228.336 0 .608-.067.818-.202.21-.144.314-.321.314-.532a.483.483 0 00-.264-.443c-.168-.093-.444-.194-.83-.304l-.478-.151a7.056 7.056 0 01-1.082-.406 2.132 2.132 0 01-.742-.594c-.202-.245-.302-.561-.302-.95 0-.59.23-1.058.692-1.404.46-.355 1.069-.532 1.824-.532.511 0 .96.08 1.346.24.386.17.683.397.893.684.21.295.315.629.315 1 0 .042-.017.08-.05.114a.135.135 0 01-.101.038h-1.07a.183.183 0 01-.113-.038.185.185 0 01-.038-.114c0-.22-.109-.401-.327-.544-.21-.152-.499-.228-.868-.228-.327 0-.595.059-.805.177-.201.127-.302.3-.302.519 0 .202.097.354.29.456.2.11.532.227.993.354l.277.076c.445.135.818.27 1.12.405.302.143.557.337.767.582.21.253.315.578.315.974 0 .6-.235 1.068-.705 1.405-.47.346-1.094.52-1.874.52zm4.642-7.429a.866.866 0 01-.642-.253.877.877 0 01-.251-.645c0-.262.084-.477.251-.646a.866.866 0 01.642-.253c.26 0 .474.084.642.253a.877.877 0 01.251.646.877.877 0 01-.251.645.866.866 0 01-.642.253zm-.604 7.353a.156.156 0 01-.113-.05.138.138 0 01-.038-.102v-6.176c0-.042.013-.076.038-.101a.156.156 0 01.113-.05h1.157a.12.12 0 01.101.05.12.12 0 01.05.101v6.176a.12.12 0 01-.05.102.12.12 0 01-.1.05h-1.158zm6.064-6.568c.68 0 1.22.202 1.623.607.41.405.616.958.616 1.658v4.151a.12.12 0 01-.05.102.12.12 0 01-.1.05H78.68a.156.156 0 01-.113-.05.137.137 0 01-.038-.102v-3.847c0-.388-.11-.705-.327-.95-.218-.236-.508-.354-.868-.354s-.654.118-.88.355c-.219.236-.328.548-.328.936v3.86a.12.12 0 01-.05.102.12.12 0 01-.1.05h-1.158a.156.156 0 01-.114-.05.138.138 0 01-.037-.102V78.1c0-.042.012-.08.037-.114a.183.183 0 01.114-.038h1.157c.042 0 .076.013.1.038.034.034.051.072.051.114v.405c0 .025.008.042.025.05.017.009.03 0 .038-.025.344-.455.864-.683 1.56-.683zm9.133 2.607c.034.21.05.447.05.709l-.012.392c0 .101-.05.152-.15.152h-3.938c-.042 0-.063.02-.063.063.025.278.063.468.113.57.201.607.692.915 1.472.924.57 0 1.023-.237 1.359-.71.033-.05.075-.075.125-.075a.12.12 0 01.088.038l.78.645c.076.06.088.127.038.203-.26.371-.608.658-1.044.86a3.31 3.31 0 01-1.434.304c-.654 0-1.212-.148-1.674-.443a2.558 2.558 0 01-.993-1.24c-.193-.456-.29-1.088-.29-1.898 0-.49.05-.886.151-1.19.168-.59.483-1.059.944-1.405.47-.337 1.031-.506 1.686-.506 1.652 0 2.583.869 2.792 2.607zM84.09 79.11c-.31 0-.57.08-.78.24a1.22 1.22 0 00-.428.646c-.05.144-.084.33-.1.557-.018.042 0 .063.05.063h2.553c.042 0 .063-.02.063-.063a2.397 2.397 0 00-.075-.48 1.216 1.216 0 00-.453-.71c-.218-.168-.495-.253-.83-.253zm6.466 5.38c-.528 0-.994-.081-1.396-.241-.395-.152-.7-.367-.919-.646a1.412 1.412 0 01-.327-.911v-.114c0-.042.013-.08.038-.114a.184.184 0 01.113-.038h1.107c.042 0 .076.013.1.038.034.034.051.072.051.114v.025c0 .211.113.397.34.557.235.152.528.228.88.228.336 0 .608-.067.818-.202.21-.144.315-.321.315-.532a.483.483 0 00-.264-.443c-.168-.093-.445-.194-.83-.304l-.479-.151a7.059 7.059 0 01-1.082-.406 2.132 2.132 0 01-.742-.594c-.201-.245-.302-.561-.302-.95 0-.59.23-1.058.692-1.404.461-.355 1.07-.532 1.824-.532.512 0 .96.08 1.346.24.386.17.684.397.894.684.21.295.314.629.314 1 0 .042-.017.08-.05.114a.136.136 0 01-.101.038h-1.07a.183.183 0 01-.112-.038.185.185 0 01-.038-.114c0-.22-.11-.401-.327-.544-.21-.152-.5-.228-.868-.228-.328 0-.596.059-.806.177-.2.127-.301.3-.301.519 0 .202.096.354.289.456.201.11.532.227.994.354l.276.076c.445.135.818.27 1.12.405.302.143.558.337.767.582.21.253.315.578.315.974 0 .6-.235 1.068-.705 1.405-.47.346-1.094.52-1.874.52zm6.076 0c-.528 0-.993-.081-1.396-.241-.394-.152-.7-.367-.918-.646a1.413 1.413 0 01-.328-.911v-.114c0-.042.013-.08.038-.114a.183.183 0 01.113-.038h1.108c.042 0 .075.013.1.038.034.034.05.072.05.114v.025c0 .211.114.397.34.557.235.152.529.228.88.228.336 0 .609-.067.819-.202.21-.144.314-.321.314-.532a.483.483 0 00-.264-.443c-.168-.093-.445-.194-.83-.304l-.478-.151a7.056 7.056 0 01-1.082-.406 2.132 2.132 0 01-.743-.594c-.2-.245-.302-.561-.302-.95 0-.59.231-1.058.692-1.404.462-.355 1.07-.532 1.825-.532.511 0 .96.08 1.346.24.386.17.683.397.893.684.21.295.315.629.315 1 0 .042-.017.08-.05.114a.135.135 0 01-.102.038h-1.069a.183.183 0 01-.113-.038.185.185 0 01-.038-.114c0-.22-.109-.401-.327-.544-.21-.152-.499-.228-.868-.228-.327 0-.596.059-.805.177-.201.127-.302.3-.302.519 0 .202.096.354.29.456.2.11.532.227.993.354l.277.076c.444.135.818.27 1.12.405.302.143.557.337.767.582.21.253.314.578.314.974 0 .6-.234 1.068-.704 1.405-.47.346-1.095.52-1.875.52z" fill="#fff"/><path d="M38.699 102.259c-.093 0-.151-.042-.176-.127l-2.227-8.568-.013-.05c0-.076.046-.114.139-.114h1.56c.084 0 .138.042.163.126l1.195 5.151c.009.034.021.05.038.05.017 0 .03-.016.038-.05l1.157-5.138c.025-.093.08-.14.164-.14h1.522c.092 0 .151.043.176.127l1.258 5.151c.009.026.021.042.038.05.017 0 .03-.016.038-.05l1.157-5.138c.025-.093.08-.14.164-.14h1.484c.118 0 .164.056.139.165l-2.064 8.568c-.025.085-.084.127-.176.127h-1.497c-.084 0-.138-.042-.163-.127l-1.284-5.48c-.008-.033-.02-.05-.037-.05-.017 0-.03.017-.038.05l-1.195 5.468c-.017.092-.072.139-.164.139H38.7zm9.234 0a.155.155 0 01-.113-.051.136.136 0 01-.038-.101v-8.555c0-.043.013-.076.038-.102a.156.156 0 01.113-.05h1.472a.12.12 0 01.1.05.12.12 0 01.05.102v8.555a.12.12 0 01-.05.101.12.12 0 01-.1.051h-1.472zm8.215-8.707c0-.043.013-.076.038-.102a.156.156 0 01.113-.05h1.472a.12.12 0 01.1.05.12.12 0 01.05.102v8.555a.12.12 0 01-.05.101.12.12 0 01-.1.051h-1.422c-.083 0-.142-.034-.176-.101l-3.258-5.417c-.017-.025-.034-.034-.05-.025-.017 0-.026.017-.026.05l.026 5.341a.12.12 0 01-.05.101.12.12 0 01-.101.051h-1.472a.155.155 0 01-.114-.051.136.136 0 01-.037-.101v-8.555c0-.043.012-.076.037-.102a.156.156 0 01.114-.05h1.421c.084 0 .143.033.176.101l3.246 5.391c.017.026.034.034.05.026.017 0 .026-.017.026-.05l-.013-5.316zm9.385-.152a.12.12 0 01.1.05.12.12 0 01.051.102v1.24a.12.12 0 01-.05.101.12.12 0 01-.1.05H63.28c-.042 0-.063.022-.063.064v7.1a.12.12 0 01-.05.101.119.119 0 01-.1.051h-1.472a.156.156 0 01-.114-.051.137.137 0 01-.038-.101v-7.1c0-.042-.02-.063-.062-.063h-2.19a.156.156 0 01-.113-.05.138.138 0 01-.037-.102v-1.24c0-.043.012-.076.037-.102a.156.156 0 01.114-.05h6.34zm7.398 1.38a.138.138 0 01-.038.1.156.156 0 01-.113.051h-4.127c-.042 0-.063.021-.063.063v1.962c0 .042.021.063.063.063h2.705c.042 0 .075.013.1.038.034.034.051.072.051.114V98.4c0 .042-.017.08-.05.114a.136.136 0 01-.101.038h-2.705c-.042 0-.063.02-.063.063v2.05c0 .042.021.063.063.063h4.127c.042 0 .08.013.113.038a.187.187 0 01.038.114v1.228a.137.137 0 01-.038.101.156.156 0 01-.113.051h-5.813a.155.155 0 01-.113-.051.136.136 0 01-.038-.101v-8.555c0-.043.013-.076.038-.102a.156.156 0 01.113-.05h5.813c.042 0 .08.017.113.05.025.026.038.06.038.102v1.227zm6.064 7.479a.178.178 0 01-.177-.114l-1.572-3.506c-.017-.033-.042-.05-.076-.05H76c-.042 0-.063.02-.063.063v3.455a.12.12 0 01-.05.101.12.12 0 01-.1.051h-1.473a.155.155 0 01-.113-.051.136.136 0 01-.037-.101v-8.555c0-.043.012-.076.037-.102a.156.156 0 01.114-.05h3.598c.536 0 1.006.11 1.409.329.41.22.725.531.943.936.227.405.34.874.34 1.405 0 .574-.143 1.063-.428 1.468a2.267 2.267 0 01-1.195.874c-.042.016-.055.046-.038.088l1.711 3.582a.19.19 0 01.025.076c0 .067-.046.101-.138.101h-1.547zM76 94.931c-.042 0-.063.021-.063.063v2.165c0 .042.021.063.063.063h1.648c.353 0 .638-.106.856-.317.226-.21.34-.485.34-.822 0-.338-.114-.616-.34-.835-.218-.211-.503-.317-.856-.317H76zm-28.62 17.617c-.017.017-.022.034-.013.051.008.017.025.025.05.025h3.41c.041 0 .08.013.113.038a.187.187 0 01.037.114v1.227a.14.14 0 01-.037.102.158.158 0 01-.114.05h-5.66a.158.158 0 01-.114-.05.14.14 0 01-.038-.102v-1.164c0-.076.025-.139.076-.19.41-.405.83-.843 1.258-1.316.428-.481.696-.78.805-.899.235-.278.474-.544.717-.797.763-.852 1.145-1.485 1.145-1.898a.958.958 0 00-.315-.734c-.21-.186-.482-.279-.817-.279-.336 0-.608.093-.818.279a.986.986 0 00-.315.759v.317c0 .042-.017.08-.05.113a.133.133 0 01-.1.038h-1.485a.133.133 0 01-.1-.038.155.155 0 01-.051-.113v-.595c.025-.456.168-.861.428-1.215.26-.346.603-.612 1.031-.798a3.702 3.702 0 011.46-.278c.595 0 1.115.11 1.56.329.436.228.775.532 1.019.911.234.38.352.802.352 1.266 0 .354-.088.717-.264 1.088-.176.371-.44.772-.793 1.203-.26.329-.54.653-.843.974-.302.321-.75.785-1.346 1.392l-.189.19zm7.686 1.747c-.922 0-1.652-.262-2.189-.785-.537-.515-.805-1.219-.805-2.114v-3.341c0-.877.268-1.573.805-2.088.537-.515 1.267-.772 2.19-.772.922 0 1.656.257 2.2.772.537.515.806 1.211.806 2.088v3.341c0 .895-.269 1.599-.805 2.114-.545.523-1.28.785-2.202.785zm0-1.532c.377 0 .68-.118.906-.354.218-.228.327-.536.327-.924v-3.48c0-.389-.109-.696-.327-.924-.227-.237-.529-.355-.906-.355-.369 0-.663.118-.88.355-.227.228-.34.535-.34.924v3.48c0 .388.113.696.34.924.218.236.511.354.88.354zm6.53-.215c-.017.017-.021.034-.013.051.008.017.025.025.05.025h3.41c.041 0 .08.013.113.038a.187.187 0 01.037.114v1.227a.14.14 0 01-.037.102.158.158 0 01-.113.05H59.38a.12.12 0 01-.1-.05.122.122 0 01-.05-.102v-1.164a.26.26 0 01.075-.19c.41-.405.83-.843 1.258-1.316.428-.481.696-.78.805-.899.235-.278.474-.544.717-.797.763-.852 1.145-1.485 1.145-1.898a.958.958 0 00-.315-.734c-.21-.186-.482-.279-.817-.279-.336 0-.608.093-.818.279a.986.986 0 00-.315.759v.317c0 .042-.012.08-.037.113a.18.18 0 01-.114.038h-1.484a.133.133 0 01-.1-.038.155.155 0 01-.051-.113v-.595c.025-.456.168-.861.428-1.215.26-.346.608-.612 1.044-.798a3.61 3.61 0 011.447-.278c.595 0 1.115.11 1.56.329.436.228.776.532 1.019.911.235.38.352.802.352 1.266 0 .354-.088.717-.264 1.088-.176.371-.44.772-.793 1.203-.26.329-.54.653-.843.974-.302.321-.75.785-1.346 1.392l-.188.19zm9.938-2.62c.168.388.252.836.252 1.342 0 .455-.076.877-.227 1.265a2.51 2.51 0 01-1.006 1.266c-.478.304-1.04.456-1.686.456-.637 0-1.195-.161-1.673-.481a2.666 2.666 0 01-1.044-1.304 3.614 3.614 0 01-.202-1.063c0-.101.05-.152.151-.152h1.485c.1 0 .15.051.15.152.034.278.08.485.14.62a.968.968 0 00.377.506c.167.127.369.19.603.19.47 0 .793-.207.97-.62.117-.253.175-.548.175-.886 0-.396-.063-.721-.188-.974-.193-.397-.516-.595-.97-.595a.64.64 0 00-.288.076 5.22 5.22 0 00-.365.24.162.162 0 01-.1.038c-.051 0-.089-.025-.114-.076l-.742-1.05a.157.157 0 01-.026-.089.17.17 0 01.05-.126l2.001-1.759c.017-.017.025-.034.025-.051-.008-.017-.025-.025-.05-.025h-2.957a.12.12 0 01-.1-.051.12.12 0 01-.05-.101v-1.228a.12.12 0 01.05-.101.12.12 0 01.1-.051h5.247c.041 0 .08.017.113.051a.136.136 0 01.038.101v1.392c0 .068-.03.131-.088.19l-1.649 1.519c-.016.017-.02.034-.012.05 0 .017.017.026.05.026.73.143 1.25.578 1.56 1.303z" fill="#252530"/></g><defs><clipPath id="clip0_7433_31499"><path fill="#fff" d="M0 0h117v132H0z"/></clipPath></defs></svg>