<svg width="119" height="33" fill="none" xmlns="http://www.w3.org/2000/svg"><path d="M16.64 30.437c-1.781.313-3.594.407-5.469.657l-5.719-16.75v17.469C3.672 32 2.046 32.25.36 32.5V.5h4.75l6.5 18.157V.5h5.03v29.937zm9.844-18.218c1.937 0 4.906-.094 6.687-.094v5c-2.219 0-4.812 0-6.687.094v7.437c2.937-.187 5.875-.437 8.843-.531v4.812l-13.843 1.094V.5h13.843v5h-8.843v6.719zM53.92 5.5h-5.187v23c-1.688 0-3.375 0-5 .062V5.5h-5.188v-5H53.92v5zm8.125 6.375h6.844v5h-6.844v11.344h-4.907V.5h13.97v5h-9.063v6.375zm17.188 11.969c2.843.062 5.718.281 8.5.437v4.938c-4.47-.282-8.938-.563-13.5-.657V.5h5v23.344zm12.718 5.718c1.594.094 3.282.188 4.907.375V.5h-4.907v29.063zM118.765.5l-6.344 15.219 6.344 16.781c-1.875-.25-3.75-.594-5.625-.906l-3.594-9.25-3.656 8.5c-1.813-.313-3.563-.407-5.375-.657l6.438-14.656L101.14.5h5.375l3.281 8.406 3.5-8.406h5.469z" fill="#2C2C2C"/></svg>