<svg width="48" height="48" viewBox="0 0 48 48" fill="none" xmlns="http://www.w3.org/2000/svg">
<circle cx="24" cy="24" r="24" fill="#009C80"/>
<path fill-rule="evenodd" clip-rule="evenodd" d="M22.6309 29.4365L31.1199 20.9475C31.5109 20.5565 32.1439 20.5565 32.5339 20.9475L33.6119 22.0255C34.0029 22.4165 34.0029 23.0495 33.6119 23.4395L25.1209 31.9305C24.8579 32.1935 24.5269 32.3775 24.1659 32.4625L22.5179 32.8515C22.0339 32.9655 21.5989 32.5315 21.7119 32.0465L22.0979 30.3955C22.1829 30.0325 22.3679 29.7005 22.6309 29.4365V29.4365Z" stroke="white" stroke-width="2" stroke-linecap="round" stroke-linejoin="round"/>
<path d="M29.53 22.5303L32.03 25.0303" stroke="white" stroke-width="2" stroke-linecap="round" stroke-linejoin="round"/>
<path d="M19 33H18.849C16.171 33 14 30.829 14 28.151V28.151C14 26.235 15.128 24.498 16.88 23.72L20.84 21.96C22.154 21.376 23 20.074 23 18.637V18.637C23 16.628 21.372 15 19.363 15H19" stroke="white" stroke-width="2" stroke-linecap="round" stroke-linejoin="round"/>
</svg>
