<svg width="48" height="48" fill="none" xmlns="http://www.w3.org/2000/svg"><circle cx="24" cy="24" r="24" fill="#FF5722"/><path d="M21.509 30.003v.512a2.488 2.488 0 002.49 2.488v0a2.49 2.49 0 002.492-2.489v-.511" stroke="#fff" stroke-width="2" stroke-linecap="round" stroke-linejoin="round"/><path clip-rule="evenodd" d="M29.95 30.002c1.134 0 2.053-.92 2.053-2.053v0c0-.577-.229-1.13-.636-1.537l-1.364-1.364v-4.05A6.002 6.002 0 0024 14.997v0A6.002 6.002 0 0017.997 21v4.05l-1.364 1.363c-.407.408-.636.96-.636 1.537v0a2.054 2.054 0 002.054 2.053H29.95z" stroke="#fff" stroke-width="2" stroke-linecap="round" stroke-linejoin="round"/></svg>