<svg width="48" height="48" viewBox="0 0 48 48" fill="none" xmlns="http://www.w3.org/2000/svg">
<circle cx="24" cy="24" r="24" fill="#3955CA"/>
<path d="M25.3206 28.002H28.0017" stroke="white" stroke-width="2" stroke-linecap="round" stroke-linejoin="round"/>
<path d="M26.6612 27.9979V22.9971L25.2006 24.3173" stroke="white" stroke-width="2" stroke-linecap="round" stroke-linejoin="round"/>
<path fill-rule="evenodd" clip-rule="evenodd" d="M32.1484 25.1631L32.9747 20.336C33.1838 19.1135 32.2424 17.9971 31.0019 17.9971H16.9981C15.7576 17.9971 14.8162 19.1135 15.0253 20.335L15.8516 25.1621C15.8896 25.3851 15.8896 25.6142 15.8516 25.8373L15.0253 30.6643C14.8162 31.8869 15.7576 33.0033 16.9981 33.0033H31.0029C32.2424 33.0033 33.1838 31.8869 32.9747 30.6653L32.1484 25.8383C32.1104 25.6142 32.1104 25.3861 32.1484 25.1631Z" stroke="white" stroke-width="2" stroke-linecap="round" stroke-linejoin="round"/>
<path d="M31.0029 17.9966L31.116 17.3335C31.326 16.1123 30.3847 14.9961 29.1441 14.9961H18.8559C17.6163 14.9961 16.6749 16.1123 16.884 17.3335L16.9971 17.9966" stroke="white" stroke-width="2" stroke-linecap="round" stroke-linejoin="round"/>
<path d="M19.9983 23.9572C20.1574 23.4071 20.6436 22.9971 21.2448 22.9971C21.9731 22.9971 22.5644 23.5872 22.5644 24.3163C22.5644 24.9684 22.0351 25.4975 21.3829 25.4975C22.0351 25.4975 22.5644 26.0266 22.5644 26.6787C22.5644 27.4068 21.9741 27.9979 21.2448 27.9979C20.6436 27.9979 20.1574 27.5879 19.9983 27.0378" stroke="white" stroke-width="2" stroke-linecap="round" stroke-linejoin="round"/>
</svg>
