<svg width="48" height="48" viewBox="0 0 48 48" fill="none" xmlns="http://www.w3.org/2000/svg">
<circle cx="24" cy="24" r="24" fill="#3BB273"/>
<path d="M32.117 15.8816C33.294 17.0583 33.294 18.9658 32.117 20.1425C30.94 21.3192 29.032 21.3192 27.855 20.1425C26.678 18.9658 26.678 17.0583 27.855 15.8816C29.032 14.7048 30.94 14.7048 32.117 15.8816" stroke="white" stroke-width="2" stroke-linecap="round" stroke-linejoin="round"/>
<path d="M31 24.999V30.999C31 32.104 30.105 32.999 29 32.999H17C15.895 32.999 15 32.104 15 30.999V18.999C15 17.894 15.895 16.999 17 16.999H23" stroke="white" stroke-width="2" stroke-linecap="round" stroke-linejoin="round"/>
<path d="M23 21.4973C22.893 21.4973 22.806 21.5843 22.806 21.6913C22.806 21.7983 22.893 21.8852 23 21.8852C23.107 21.8852 23.194 21.7983 23.194 21.6913C23.195 21.5843 23.108 21.4973 23 21.4973" stroke="white" stroke-width="2" stroke-linecap="round" stroke-linejoin="round"/>
<path d="M23.001 24.6113V28.4994" stroke="white" stroke-width="2" stroke-linecap="round" stroke-linejoin="round"/>
</svg>
