<svg width="170" height="23" fill="none" xmlns="http://www.w3.org/2000/svg"><path d="M116.694.528l-4.277.01v21.945h19.613c2.146-.91 3.295-2.484 3.739-4.32h-19.086l.011-17.635zm32.005 4.385h16.361c2.273-.45 3.965-2.456 4.44-4.396h-25.244c.472 1.94 2.189 3.946 4.443 4.396zm-52.984-.061c2.273-.66 4.188-2.395 4.654-4.319H76.363V13.5h19.65v4.551l-15.412.014c-2.418.672-4.46 2.292-5.484 4.435l1.246-.022h23.873V9.19H80.601V4.852h15.114zm49.201 17.626h4.255v-8.834h15.489v8.834h4.252V9.228l-23.996-.022v13.272zM43.298 4.898h16.358C61.93 4.448 63.62 2.44 64.096.5H38.854c.472 1.94 2.187 3.947 4.444 4.399zM.74.55c.491 1.92 2.153 3.877 4.432 4.371h6.886l.35.139v17.373h4.301V5.06l.389-.139h6.893c2.301-.594 3.928-2.45 4.413-4.371V.508H.741V.55zm42.557 21.93h16.358c2.275-.455 3.965-2.456 4.44-4.398H38.854c.472 1.942 2.187 3.943 4.444 4.399zm0-8.908h16.358c2.275-.45 3.965-2.456 4.44-4.396H38.854c.472 1.94 2.187 3.946 4.444 4.396z" fill="#2C2C2C"/></svg>