<svg width="145" height="37" fill="none" xmlns="http://www.w3.org/2000/svg"><path fill-rule="evenodd" clip-rule="evenodd" d="M41.554 8.055v20.89h4.092V8.055h-4.092v.001zm-40.966 0v.002-.002zm0 .002c.05.209 3.581 15.215 4.148 17.665.667 2.88 1.867 3.94 5.33 3.224l2.233-9.423c.566-2.341.946-4.01 1.31-6.39h.064c.224 2.105.531 3.635.917 5.556l.168.842s.91 4.278 1.376 6.525c.466 2.246 1.766 3.662 5.157 2.891l5.322-20.89h-4.297l-1.817 9.032c-.137.734-.27 1.424-.398 2.088v.001c-.33 1.715-.63 3.266-.876 5h-.06c-.289-2.21-.65-4.068-1.097-6.371l-.106-.545-1.892-9.205h-4.478L9.57 17.03c-.148.703-.294 1.371-.434 2.016-.403 1.854-.764 3.512-1.017 5.236h-.062a260.855 260.855 0 00-1.318-7.595s-1.202-6.418-1.624-8.63H.588zm98.59-.002v15.411c0 2.125.386 3.614 1.211 4.523.721.796 1.908 1.31 3.331 1.31 1.21 0 2.4-.237 2.961-.454l-.053-3.315a6.011 6.011 0 01-1.554.192c-1.394 0-1.861-.926-1.861-2.834v-5.896h3.563v-3.997h-3.563v-4.94h-4.035zm-66.767 4.843c-2.543 0-4.561.74-5.662 1.4l.806 2.858c1.006-.658 2.61-1.203 4.128-1.203 2.513-.006 2.924 1.474 2.924 2.423v.225c-5.476-.009-8.936 1.956-8.936 5.962 0 2.445 1.761 4.737 4.823 4.737 1.885 0 3.462-.78 4.407-2.029h.092s.626 2.713 4.073 1.676c-.181-1.13-.24-2.333-.24-3.783v-5.58c0-3.557-1.465-6.686-6.415-6.686zm20.066 2.487c.697-1.142 1.848-2.487 4.408-2.487 1.991 0 3.52 1.116 4.172 2.807h.06c.56-.852 1.202-1.499 1.918-1.954.851-.543 1.793-.853 2.987-.853 2.695 0 5.082 1.93 5.082 6.805v9.244h-4.112v-8.6c0-2.47-.807-3.9-2.49-3.9-1.234 0-2.13.858-2.468 1.912-.117.364-.171.86-.171 1.272v9.316h-4.11v-8.945c0-2.1-.776-3.555-2.435-3.555-1.328 0-2.16 1.084-2.5 2.01-.146.398-.193.854-.193 1.286v9.204h-4.113V13.252h3.904v2.133h.06zm26.995-2.487c-2.542 0-4.56.74-5.661 1.4l.806 2.858c1.006-.658 2.61-1.203 4.127-1.203 2.512-.006 2.924 1.474 2.924 2.423v.225c-5.476-.009-8.936 1.956-8.936 5.962 0 2.445 1.762 4.737 4.826 4.737 1.884 0 3.46-.78 4.404-2.029h.093s.625 2.713 4.073 1.676c-.182-1.13-.24-2.333-.24-3.783v-5.58c0-3.557-1.465-6.686-6.416-6.686zm12.962 3.314c.752-2.26 2.544-3.314 4.12-3.314.395 0 .612.03.93.097v4.109l-.037-.006c-.365-.054-.708-.106-1.182-.106-1.782 0-3.024 1.076-3.336 2.76a6.182 6.182 0 00-.092 1.158v8.037h-4.22V13.252h3.702v2.96h.115zm-57.695 5.17v1.958c0 .29-.024.588-.101.85-.317 1.087-1.404 2.006-2.762 2.006-1.132 0-2.031-.667-2.031-2.076 0-2.156 2.288-2.752 4.894-2.738zm47.062 1.958v-1.958c-2.606-.014-4.895.582-4.895 2.738 0 1.41.9 2.076 2.032 2.076 1.358 0 2.444-.92 2.76-2.007a3.08 3.08 0 00.103-.85zm44.726-21.144c0-.931 1.05-1.696 2.37-1.696h.002c1.323 0 2.376.765 2.376 1.696l-.806 9.418c-.091.567-.759 1.004-1.571 1.005-.81 0-1.481-.438-1.569-1.005l-.802-9.418zM113.865 9.5c.496-.891 1.274-1.43 1.96-1.446h.001c.228-.006.446.047.64.163l7.466 5.43c.43.364.461 1.184.053 1.913-.406.727-1.107 1.107-1.624.908l-8.266-3.992c-.775-.465-.893-1.79-.23-2.976zm28.105-1.446a1.167 1.167 0 00-.64.163l-7.467 5.43c-.427.364-.459 1.184-.053 1.913.408.727 1.107 1.107 1.624.908l8.27-3.991c.778-.466.89-1.791.232-2.977-.498-.891-1.278-1.43-1.964-1.446h-.002zm-19.607 12.479a.806.806 0 01.307-.053c.464.006.99.368 1.32.961l-.004-.001c.409.729.377 1.549-.053 1.917l-7.466 5.426c-.776.464-1.94-.099-2.601-1.283-.663-1.187-.545-2.513.23-2.98l8.267-3.987zm12.765-.053c-.463.006-.988.368-1.319.962l.003-.002c-.406.729-.374 1.549.053 1.917l7.467 5.426c.774.464 1.939-.099 2.603-1.282.658-1.188.547-2.514-.232-2.981l-8.267-3.987a.813.813 0 00-.308-.053zm-7.798 4.905c.088-.566.757-1.001 1.566-1.002h.003c.812 0 1.48.436 1.571 1.002l.804 9.418c0 .933-1.052 1.696-2.375 1.696-1.321 0-2.371-.763-2.371-1.696l.802-9.418z" fill="#2C2C2C"/></svg>